<svg xmlns="http://www.w3.org/2000/svg" width="1024" height="1024"><path fill="#070126" d="M315 160c2.083-.054 4.166-.093 6.25-.125l3.516-.07c3.062.185 4.676.587 7.234 2.195l-2.937-.062c-2.938-.294-2.938-.294-4.063 1.062l2.75-.125c5.495-.023 10.865 1.135 16.25 2.125v2c3.655.752 7.317 1.4 11 2v2l9 2v2l9 1 1 3c3.008 1.225 3.008 1.225 6 2v2l7 1 1 3c2.504 1.743 2.504 1.743 5.563 3.375 4.315 2.427 8.553 4.906 12.718 7.582 1.859 1.128 3.763 2.095 5.719 3.043l-1 1 1.386.959c8.4 5.826 16.648 11.619 24.317 18.396 2.488 1.782 4.285 2.287 7.297 2.645l.313 1.938L445 228l3 1 1.688 2.125c2.447 3.043 5.072 5.386 8.03 7.914 2.508 2.155 4.958 4.366 7.407 6.586 2.637 2.388 5.274 4.729 8.063 6.938 2.986 2.588 5.446 5.371 8.007 8.37 4.813 5.755 4.813 5.755 10.805 10.067l1-2v2l3.762-.437 4.926-.563c.816-.095 1.633-.19 2.474-.29 3.967-.449 7.838-.84 11.838-.71l1-2v2l8-1v-1h5v1a755 755 0 0 0 15.79 1.769c1.799.188 3.593.411 5.386.645 3.633.305 5.811.421 8.695-1.957a80 80 0 0 0 3.445-4.262c1.616-2.107 3.22-3.678 5.246-5.382 3.87-3.277 7.558-6.716 11.25-10.188a258 258 0 0 1 15.981-13.82c1.863-1.524 3.514-3.103 5.207-4.805a113 113 0 0 1 3.375-2.562q4.573-3.384 9.067-6.87C633.697 204.88 654.89 189.24 678 178v-2l2.414-.258c4.618-.956 8.655-2.728 12.961-4.617 18.665-8.088 18.665-8.088 27.313-8.687l3.574-.254L727 162l-2-2h7l1 2c3.434.836 3.434.836 7 1l2-2c2 2 2 2 2 5l2.063.625c10.853 5.08 16.546 16.18 20.753 26.914 3.817 11.16 6.345 22.627 8.496 34.211l.52 2.777c.87 4.905 1.352 9.493 1.168 14.473l3 1h-2l.416 2.035a122 122 0 0 1 2.209 19.528l.11 3.147c1.178 38.887 1.094 78.018-6.735 116.29l1.75.438L782 389l.313 1.688c.595 2.405.595 2.405 2.156 4.566 4.05 7.263 3.66 16.622 3.531 24.746a65 65 0 0 0 1 4h-1l-.262 3.008c-.8 8.106-2.256 15.146-5.23 22.777-2.153 5.743-3.69 11.683-5.32 17.59l-.952 3.447Q775.11 474.909 774 479l10-2 1-3h3l2-2c3.625-.125 3.625-.125 7 0l1 2-6-1 1 2q2.22-.172 4.438-.375c.823-.07 1.647-.14 2.496-.21L802 474l1-2a868 868 0 0 1 13.375-.312l3.793-.127c7.805-.103 14.512.437 20.832 5.439 1.375 3.563 1.375 3.563 1 7-1.873 2.738-3.112 3.778-6.333 4.584-2.597.405-5.096.604-7.722.697l-2.863.114-2.957.105c-6.11.22-12.084.488-18.125 1.5l-3.586.578A364 364 0 0 0 788 494l-2.347.5a228 228 0 0 0-6.966 1.688l-2.19.483c-2.864.783-5.01 1.531-6.597 4.13-.79 2.052-1.386 4.062-1.9 6.199l-.73 2.531-.457 1.969L766 515l3.727.309c6.03.67 11.791 2.212 17.648 3.754q3.198.835 6.398 1.66l2.826.742c2.48.644 2.48.644 5.401.535v-2h6l-1 2 1 4 10 2v2c5.834 2.1 5.834 2.1 11.875 3.375C832 534 832 534 833.75 536.188c1.385 3.117 2.179 5.389 2.25 8.812-1.801 3.242-3.033 4.666-6.559 5.883-4.954.169-8.517-1.74-12.941-3.82-7.4-3.575-7.4-3.575-15.5-4.063v-3h-9l-1-2a146 146 0 0 0-8.562-2.125l-2.444-.55c-1.996-.45-3.995-.888-5.994-1.325l-1 2-3 1 1.063 1.563c1.37 3.562.874 5.753-.063 9.437-2.62 5.093-6.633 8.622-10.969 12.254-1.915 1.646-3.657 3.364-5.406 5.183C732.441 587.82 700.742 606.495 672 619h-2l8 19h2l.313 2.938c.643 4.493 1.827 8.915 3.687 13.062l2 1c.676 1.828.676 1.828 1.313 4.25 1.804 6.417 4.232 12.559 6.687 18.75h2l1 10h3l-1 3a97 97 0 0 0 2.281 7.254l1.544 4.495.83 2.383c5.493 15.8 10.301 31.632 14.345 47.868h2l-.087 3.058c.086 3.885.63 7.223 1.478 11.008l.897 4.118.477 2.163c2.702 12.341 5.076 24.708 6.86 37.216l.571 3.703c.924 6.886 1.085 12.455-2.196 18.734-5.452 6.304-16.075 8.36-24 10-3 .125-3 .125-5 0l-1 2c-2.223.344-2.223.344-5.062.5-3.402.244-6.539.546-9.813 1.5-4.578 1.269-9.19 1.473-13.914 1.781-4.09.279-8.141.736-12.211 1.219l1 2h-2l-1 2-3-1h-3l-3-1-1 2v-3l-2.234.168q-5.289.391-10.578.77l-3.922.28c-10.313.72-20.621 1.145-30.959 1.352l-3.225.086-2.837.057c-2.446.08-2.446.08-4.245 2.287v-2l-2 2c-3.004.23-3.004.23-6.562.188l-3.567-.02C572 856 572 856 571 855c-2.639-.078-5.252-.09-7.89-.062l-5.361.025-2.946.019c-23.516.139-47.026-.093-70.54-.387q-3.968-.049-7.935-.092-6.305-.072-12.609-.156-2.355-.03-4.71-.056a1811 1811 0 0 1-6.475-.086l-3.693-.047C446 854 446 854 444 853l-1 2v-2q-2.22.173-4.437.375l-2.497.21L434 854l-1 2h-9v-2c-2.962-1.48-5.835-1.353-9.125-1.562l-3.883-.254L408 852l-1 2-1-2c-3.087-.631-3.087-.631-6.86-1l-2.121-.246c-2.256-.26-4.512-.508-6.769-.754q-4.4-.496-8.797-1l-2.165-.246c-6.458-.745-12.872-1.701-19.288-2.754l-1 2h-7l-1-2-3-1-1 2v-3h-3v-3l-3.625-.312c-5.49-.706-9.406-2.77-13.562-6.375-2.592-2.63-2.592-2.63-5.813-2.313-.25-1.434-.474-2.873-.687-4.312l-.387-2.426L320 823l1.41-1.305c2.518-2.685 2.39-5.988 2.715-9.508q.221-2.103.445-4.207l.208-2.033c.304-2.668.75-5.305 1.222-7.947l-2-1h3q.291-3.874.563-7.75l.17-2.21c.318-4.089.318-4.089-.284-8.111-.642-2.757.372-4.433 1.551-6.929h3l.332-3.297c.8-6.422 2.513-12.66 4.115-18.922l.69-2.86.647-2.574c.256-2.785-.438-3.953-1.784-6.347.375-2.25.375-2.25 1-4h3c2.55-6.51 4.571-13.113 6.563-19.812 3.33-11.067 7.147-21.856 11.287-32.642l1.244-3.26 1.115-2.88c.947-2.459.947-2.459.791-5.406h2l.448-1.693c2.173-7.745 5.273-15.01 8.49-22.37l1.591-3.681Q377.71 632.604 382 623h-2c-.562-1.937-.562-1.937-1-4l1-1-2.867-1.398a473 473 0 0 1-25.103-13.275c-5.326-3.083-5.326-3.083-11.03-5.327l-3 1-1.098-2.707c-2.189-3.79-4.732-5.695-8.34-7.98l-3.433-2.262L322 584a197 197 0 0 1-4-3l-3 2c-2.9-2.395-3.502-4.312-4-8l-4 1v-2h-2l-1.102-2.621c-2.242-3.992-4.858-6.461-8.273-9.442l-3.398-3.035-1.653-1.464c-1.497-1.368-2.923-2.812-4.344-4.258-2.192-2.143-3.237-2.847-6.23-3.18-.37-6.412-.37-6.412 1.375-9.187L283 539a89 89 0 0 0 2-4l1-2-2-1-1 2-3.937.313c-5.35.427-10.34 1.654-15.5 3.062l-2.405.634-2.28.64-2.044.567c-2.126.909-3.31 2.068-4.834 3.784l-1-2q-4.376 1.935-8.75 3.875l-2.5 1.105-2.422 1.075-2.222.984a89 89 0 0 0-4.222 2.066c-2.41 1.145-4.29 1.161-6.946 1.145l-2.598.016C219 551 219 551 216 549c.999-5.705 2.286-10.003 6.875-13.75 4.828-3.37 10.091-5.703 15.5-7.988 2.744-.99 2.744-.99 3.625-3.262l3 1c2.33-.46 2.33-.46 4.867-1.328l2.916-.922 3.092-1c22.221-6.972 22.221-6.972 31.125-6.75l-1-3.25c-1-3.75-1-3.75-1-7.75h-3l-1-3c-3.754-3.61-8.533-5-13.687-5-2.313 0-2.313 0-4.375-1.062-2.44-1.181-3.4-.615-5.938.062l-2-2v-1c-10.105-1.616-20.107-2.534-30.312-3.125l-4.264-.262c-5.709-.423-5.709-.423-11.424-.613h-1c-.25-7.625-.25-7.625 2-11 6.525-5.262 16.912-5.689 25-5l2.191.574L239 473l1-1c1.996-.168 1.996-.168 4.438-.187l2.433-.043C249 472 249 472 251 474c2.912.69 2.912.69 6.25 1.125l3.39.508c3.154.345 6.19.434 9.36.367v2l2-1v-2h2v4l2-3h2l-1-1c-5.448-6.038-5.201-11.296-4.926-19.152-.108-5.62-1.345-10.905-4.074-15.848-2.027-1.354-2.027-1.354-4-2-.125-4.75-.125-4.75 1-7a453 453 0 0 0-.733-4.744c-.569-4.81-.41-9.67-.392-14.506l-.012-3.297.004-3.156.004-2.864C264 400 264 400 265 397c2.063-.687 2.063-.687 4-1l.25-1.875c.75-2.125.75-2.125 2.813-3.375L274 390l-1-2 3-6c.892-3.096.892-3.096 1-6l-2-3a100 100 0 0 1-1.062-6.562l-.473-3.504L273 359l-.279-2.253c-.771-6.782-.838-13.49-.784-20.31l.014-3.306q.02-4.065.049-8.131v-62l2-1c.167-3.417.167-3.417 0-7l-2-2c-.238-3.091.01-5.031 1-8-.39-2.143-.39-2.143-1-4l2-1v-4h4l-1-7h2l.184-3.105.253-4.083.12-2.04c.233-3.675.672-7.175 1.443-10.772a99 99 0 0 0 0-5l3 1 .563-3.875.316-2.18c.29-2.026.29-2.026-.879-3.945h3l-2-1v-2h3l.316-2.148c.768-3.204 2.007-5.61 3.622-8.477l1.59-2.852A109 109 0 0 1 297 173c-.308-2.153-.308-2.153-1-4l4-1v2l1.813-1.75c4.387-3.097 9.114-4.58 14.187-6.25zm-33 47 1 2Zm-6 30-1 5 2 1v-6zm-1 6-1 8 2 1v-9zm-2 22 1 3Zm0 71 1 2Zm1 4v9h1v-9zm1 14v9h1v-9zm1 9v6h1v-6zm2 15v6h1v-6zm-3 9 1 2Zm-8 11 1 3Zm-1 4c-.744 9.128-1.256 17.879 0 27h1v-27zm1 32 1 3Zm6 21 1 3Zm1 5 1 3Zm1 3 1 4Zm1 5 1 2Zm1 3 1 2Zm6 29 1 3Zm484 32 1 3 1-3zm-549 12 1 3Zm88 27v2l2-1zm76 50 1 2Zm-43 116 1 3Zm-9 36-1 8c1.43-2.354 2.087-3.48 1.625-6.25zm-7 55 1 2Zm25 15 4 1Zm301 7 3 2 3-2zm-75 4v1h5v-1z"/><path fill="#36146a" d="m541.625 416.688 2.045.45c4.666 1.205 6.882 2.728 9.33 6.862a99 99 0 0 1 2.313 7.813c2.423 8.818 5.71 16.962 9.687 25.187.34.707.68 1.414 1.032 2.142C578.248 484.152 596.55 503.182 623 513c5.576 1.755 11.258 2.933 17 4l3.277.645c7.207 1.316 14.408 2.024 21.723 2.355l2.14.103c28.937 1.217 53.906-6.79 79.684-19.173C749 500 749 500 751 500l-2 17-8.3.488c-2.944.558-3.882 1.197-5.7 3.512 4.628 2.545 8.89 3.855 14 5l-.176 1.977c-.353 6.317-.353 6.317 2.676 11.648L754 542c-1.511 4.232-4.218 5.775-8 8l-2.395.84c-3.146 1.4-5.014 3.197-7.48 5.597-15.534 14.456-34.207 26.347-52.865 36.349q-2.403 1.292-4.793 2.604C640.319 616.305 599.082 628.612 556 634l-2.319.317c-84.344 10.243-169.85-24.22-235.277-75.362-3.217-2.617-6.289-5.376-9.34-8.184-3.13-2.685-6.504-4.7-10.064-6.771 1.19-2.611 1.869-3.899 4.188-5.687 2.205-2.814 1.956-3.616 1.562-7.063A126 126 0 0 0 304 527l2.082-.7 2.73-.987 2.708-.95c3.089-1.427 3.089-1.427 5.48-6.363l-14-2c-2.286-10.571-2.286-10.571-2-16a285 285 0 0 1 15.047 5.305c13.807 5.314 27.39 9.983 41.953 12.695l2.06.39c30.76 5.511 66.794 1.762 92.94-16.39 24.485-18.225 36.258-42.335 44.555-71.016l.773-2.632a168 168 0 0 0 1.543-5.88C501 420 501 420 503.355 418.575c12.814-4.012 25.115-4.969 38.27-1.887"/><path fill="#301062" d="M349.957 188.012c11.957 5.242 22.85 11.807 33.668 19.05l1.886 1.263c24.715 16.624 48.24 36 69.083 57.304 1.525 1.538 1.525 1.538 3.906 3.308 3.572 2.948 6.808 6.285 9.5 10.063v3l-2.633.918c-9.054 3.166-9.054 3.166-16.367 9.082v4c6.176 3.088 14.088.455 20.313-1.375 14.061-3.912 27.913-5.746 42.503-5.863l3.05-.03q4.849-.034 9.697-.045l3.332-.007c20.472-.006 39.283 1.84 58.98 7.57 4.42 1.06 8.614 1.132 13.125.75.282-2.371.282-2.371 0-5-4.484-5.323-11.612-7.775-18-10 3.938-8.912 12.587-15.626 19.691-22.008 3.025-2.718 5.983-5.5 8.939-8.294C617.2 245.5 623.888 239.58 631 234l1.932-1.53C648.049 220.509 663.315 208.712 680 199c.61-.366 1.22-.732 1.85-1.108 13.916-8.341 31.386-18 48.15-15.892 7.202 2.132 11.46 6.885 15.305 13.113 13.923 25.727 15.802 60.062 15.898 88.625l.02 4.196c.02 4.46.024 8.919.027 13.378l.003 2.291c.077 60.076.077 60.076-4.253 77.397l-10-1 .351-2.588c2.301-17.137 4.335-34.103 4.649-51.412l.078-2.627c.804-27.465.134-60.357-11.953-85.498l-.919-1.92c-2.975-5.569-7.286-8.982-13.206-10.955-11.27-1.23-20.415 4.731-28.984 11.473C691.84 240.81 686.884 245.339 682 250l-2.215 2.09c-4.522 4.379-8.504 9.093-12.437 14.004-2.373 2.937-4.826 5.792-7.285 8.656-8.523 10.219-18.794 23.025-22 36.063 1.517 5.158 5.45 6.605 9.937 9.187 8.696 5.568 16.913 11.597 25 18l2.738 2.145C683.896 346.658 691.461 353.79 699 361l2.887 2.758c3.384 3.302 6.073 5.961 8.113 10.242-7.962.1-15.763-.136-23.687-.875-27.35-2.294-54.95-3.237-82.393-3.423a947 947 0 0 1-6.053-.068c-12.497.008-28.515 1.014-37.867 10.366-5.792.845-11.76-.198-17.5-1-12.548-1.712-24.907-1.632-37.387.563-8.959 1.258-8.959 1.258-13.363-1.875l-1.734-1.38c-7.454-4.839-18.166-5.425-26.789-5.453l-3.973-.02-4.274-.003-4.5-.01a4549 4549 0 0 0-9.475-.007q-4.745 0-9.49-.02c-24.864-.108-49.75.287-74.492 3.014-3.053.288-6.084.286-9.148.253l-3.383-.027L342 374l2-1 .742-1.668c1.866-3.46 4.588-5.913 7.383-8.644l1.785-1.761c4.227-4.145 8.531-8.148 13.09-11.927l2.332-1.96c10.951-9.097 22.206-17.873 34.043-25.79l1.892-1.267c2.564-1.686 4.807-3.008 7.733-3.983 1.605-16.047-12.442-31.985-22.043-43.828-2.592-3.112-5.266-6.145-7.957-9.172l-1.816-2.148c-12.619-14.899-30.472-33.87-50.872-36.29-5.54.114-9.32 2.78-13.312 6.438-8.859 10.042-10.663 25.969-12.75 38.75l-.35 2.14c-2.344 15.72-2.174 31.695-2.212 47.548l-.012 3.532c-.03 18.958 1.053 37.352 4.324 56.03l-9 1c-1.372-2.743-1.42-5.246-1.719-8.3l-.386-3.905-.197-2.05q-.292-3.018-.593-6.036c-.382-3.902-.762-7.803-1.105-11.709l-.26-2.901c-.665-7.907-.914-15.76-.943-23.693l-.017-3.838q-.015-4.009-.02-8.018c-.007-3.984-.04-7.968-.072-11.952-.138-33.531-.305-81.144 20.312-109.598 11.637-10.457 24.851-5.432 37.957.012"/><path fill="#341367" d="M384 669c4.053 3.3 7.79 6.77 11.43 10.513C413.91 698.464 443.088 722.231 470 726c4.618.039 4.618.039 8.413-2.333 1.369-1.808 2.55-3.657 3.712-5.605l1.289-2.043c3.207-5.163 6.104-10.467 8.586-16.019 2.781 4.172 3.812 8.584 5.188 13.375l.865 2.867.802 2.781.74 2.53c.877 5.293-1.443 10.22-3.142 15.177l-1.562 4.627q-1.218 3.591-2.442 7.179c-2.956 8.683-5.812 17.384-8.34 26.202l-.65 2.203c-1.398 5.012-2.835 10.419-.314 15.254l1.668 1.93 1.925 2.285L489 799q1.337 1.589 2.668 3.184a918 918 0 0 0 7.056 8.324 858 858 0 0 1 3.362 3.96c2.406 2.816 4.514 5.246 7.539 7.407 3.734 3.34 5.68 7.45 7.375 12.125.192 4.885-1.921 7.69-4.844 11.387-1.358 1.728-1.358 1.728-2.156 4.613h36l-8-8c-2.426-3.64-2.716-4.701-2-9 2.03-3.253 4.514-6.088 7-9q2.19-2.718 4.375-5.437c3.657-4.457 7.467-8.742 11.348-13.004 8.532-8.356 8.532-8.356 13.361-18.463-.75-6.004-2.252-11.542-4.139-17.284l-.915-2.856c-.96-2.988-1.933-5.972-2.905-8.956l-1.934-6.008q-1.782-5.54-3.581-11.074l-.807-2.48q-.818-2.482-1.663-4.953l-.824-2.41-.74-2.134c-2.033-6.848.433-13.318 2.424-19.879l.867-2.939q1.054-3.565 2.133-7.123c3.513 3.147 5.62 6.64 7.813 10.75 4.86 9.748 4.86 9.748 13.203 15.902 6.838.505 12.993-2.735 18.984-5.652l1.859-.895c23.757-11.566 45.053-27.508 63.403-46.468C668 670 668 670 670 670c17.504 42.688 31.079 86.494 39 132l.402 2.305c3.316 19.482 3.316 19.482.16 25.383-3.929 2.012-7.235 2.003-11.562 1.312a109 109 0 0 1-4.875-1.937c-8.009-3.243-16.612-2.84-25.125-3.063l.794-3.083q1.48-5.76 2.941-11.529.63-2.476 1.269-4.951c3.87-15.011 6.344-29.228 6.121-44.812l-.027-3.71q-.036-4.459-.098-8.915c-2.085 4.626-3.669 9.058-4.91 13.996l-1.046 4.085-.545 2.15c-3.25 12.77-6.776 25.436-10.687 38.019-.197.646-.395 1.292-.6 1.957C652.809 836.56 652.809 836.56 645 841c-5.416 2.338-11.05 3.523-16.836 4.57-2.332.416-2.332.416-5.164 1.43l1 2-2 1 12 1v1l-1.695.062q-8.711.326-17.421.683-3.254.13-6.507.25c-3.113.115-6.225.242-9.338.372l-2.951.101-2.73.121-2.41.095c-2.18.159-2.18.159-3.948 2.316v-2l-2 2c-3.004.23-3.004.23-6.562.188l-3.567-.02C572 856 572 856 571 855c-2.639-.078-5.252-.09-7.89-.062l-5.361.025-2.946.019c-23.516.139-47.026-.093-70.54-.387q-3.967-.049-7.935-.092-6.305-.072-12.609-.156-2.355-.03-4.71-.056a1811 1811 0 0 1-6.475-.086c-1.219-.015-2.438-.03-3.693-.047C446 854 446 854 444 853l-1 2v-2q-2.22.173-4.437.375c-.824.07-1.648.14-2.497.21L434 854l-1 2h-9v-2c-2.962-1.48-5.835-1.353-9.125-1.562l-3.883-.254L408 852l-1 2v-3h27c-9.44-4.428-9.44-4.428-19.437-7.125-5.725-.959-9.864-2.694-13.548-7.423-2.442-4.183-3.913-8.341-5.382-12.94l-.907-2.782c-3.282-10.215-6.088-20.553-8.851-30.918l-1.512-5.615-2.224-8.258a3880 3880 0 0 0-4.944-18.24l-.628-2.321c-.738-3.472-.738-3.472-2.567-6.378-4.479 8.958-.463 25.703 1 35l.407 2.667c1.804 11.674 4.041 22.968 7.64 34.228C384 824 384 824 384 826l-3.84.078c-11.536.196-11.536.196-22.242 4.05-3.443 1.565-7.267 1.821-10.918.872-2.839-2.207-3.898-3.353-4.465-6.952.208-8.588 1.087-16.842 2.59-25.298l.34-1.955C352.89 754.073 364.53 707.941 384 669m190 185v1h5v-1z"/><path fill="#332b97" d="M442.375 379.813c6.198.014 12.332.396 18.5 1l2.337.212c8.47.91 15.671 2.858 21.788 8.975 1.757 2.715 2 3.714 2 7 .723-.182 1.445-.364 2.19-.55 23.071-5.685 43.533-7.774 66.755-1.908 3.328.741 6.667 1.096 10.055 1.458l1-2.625c3.65-6.16 8.617-9.217 15.438-11.187 7.63-1.923 15.404-2.342 23.242-2.32l2.427-.005c2.59-.003 5.179.004 7.768.012l2.717.007c27.626.08 54.88 1.75 82.392 4.18 1.36.12 1.36.12 2.746.24 4.785.43 9.522.969 14.27 1.698l-2 5 .938-2c2.518-2.442 3.343-2.271 6.75-2.25 1.438.064 2.876.142 4.312.25 0 3.694-1.282 5.778-3 9l5-8a424 424 0 0 1 4.75.375c.882.07 1.763.14 2.672.21 2.587.416 4.285 1.2 6.578 2.415l-2.57 3.672-1.696 2.422-3.769 5.384q-4.797 6.851-9.59 13.706a5861 5861 0 0 1-17.839 25.385 2761 2761 0 0 0-9.697 13.822 1581 1581 0 0 1-17.065 24.002 1252 1252 0 0 0-12.817 18.04 418 418 0 0 1-2.733 3.85 194 194 0 0 0-3.22 4.697C661 508 661 508 658.406 508.375L655.5 508l-3.172-.402c-5.185-.931-10.26-2.17-15.328-3.598l3-6-4 5c-16.125-2.263-30.145-13.21-40.812-25-2.188-3-2.188-3-2.188-6l-3-1c-10.733-14.918-18.705-33.593-21.51-51.773-.646-3.596-1.325-5.083-4.107-7.516-3.72-1.881-7.332-3.225-11.32-4.399l-2.053-.642c-19.25-5.85-41.835-4.077-60.01 4.33l-2.156.676c-2.912 2.091-3.064 5.112-3.719 8.449-6.753 30.056-23.054 59.216-49.437 76.063-15.88 9.428-31.532 13-49.869 12.997-2.078.003-4.155.02-6.233.04l-3.977.005-3.626.013C369 509 369 509 366 507a112 112 0 0 0-4 1c-2.36-.34-2.36-.34-4.75-.937l-2.422-.59L353 506c.616-3.056 1.6-5.217 3.315-7.81.488-.744.976-1.488 1.48-2.253.536-.806 1.073-1.611 1.627-2.44l1.709-2.591c1.867-2.827 3.743-5.648 5.619-8.469l3.905-5.898c12.186-18.388 24.52-36.675 36.887-54.941 3.57-5.277 7.113-10.57 10.64-15.876 3.221-4.824 6.488-9.617 9.755-14.41l2.034-2.99 1.931-2.834 1.734-2.545c2.593-3.694 4.194-3.106 8.739-3.13"/><path fill="#bedafb" d="m675 382 2.274.144c4.65.297 9.289.668 13.93 1.083q3.581.318 7.165.619l6.76.583c4.318.388 8.586.924 12.871 1.571l-2 5 .938-2c2.518-2.442 3.343-2.271 6.75-2.25 1.438.064 2.876.142 4.312.25 0 3.694-1.282 5.778-3 9l5-8a424 424 0 0 1 4.75.375c.882.07 1.763.14 2.672.21 2.587.416 4.285 1.2 6.578 2.415l-2.57 3.672-1.696 2.422-3.769 5.384q-4.797 6.851-9.59 13.706a5861 5861 0 0 1-17.839 25.385 2761 2761 0 0 0-9.697 13.822 1581 1581 0 0 1-17.065 24.002 1252 1252 0 0 0-12.817 18.04 418 418 0 0 1-2.733 3.85 194 194 0 0 0-3.22 4.697C661 508 661 508 658.406 508.375L655.5 508l-3.172-.402c-5.185-.931-10.26-2.17-15.328-3.598l3-6-4 5c-17.122-2.403-32.626-14.662-43-28 1.641-5.304 5.011-9.32 8.313-13.687l3.828-5.133 1.959-2.622c2.858-3.847 5.663-7.73 8.462-11.62l4.83-6.704q4.049-5.62 8.108-11.234c5.743-7.95 5.743-7.95 11.476-15.907q1.638-2.265 3.296-4.514c2.646-3.6 5.144-7.202 7.427-11.044l1.34-2.126c1.283-1.993 1.283-1.993 2.305-3.992 4.531-7.005 13.358-4.941 20.656-4.417"/><path fill="#c5a5ed" d="M331.625 237.375c23.724 4.393 45.97 36.358 58.884 54.778A467 467 0 0 1 399 305l1.898 2.672L402 310c-1.142 3.125-2.547 4.695-5.281 6.523l-2.024 1.383-2.195 1.469c-18.133 12.481-34.885 26.465-51 41.438l-1.96 1.812c-3.295 3.095-6.176 6.185-8.946 9.762-2.667 3.164-4.406 4.16-8.531 4.613a64 64 0 0 1-4.063 0 3718 3718 0 0 1-1.937-11.75l-.553-3.309c-2.421-14.878-2.75-29.523-2.76-44.566l-.003-3.17c.036-56.048.036-56.048 14.19-74.767C329 238 329 238 331.626 237.375"/><path fill="#c5a6ed" d="M725 239c7.25 4.863 9.256 14.961 11 23 1.315 7.29 2.213 14.636 3 22l.292 2.497c.924 8.672.906 17.355.895 26.065v2.464c-.032 20.89-1.469 41.4-5.187 61.974a349 349 0 0 1-4.344-.379l-2.443-.213c-3.617-.667-4.917-2.596-7.213-5.408-10.492-11.965-21.462-23.167-34-33q-1.677-1.375-3.348-2.758a260 260 0 0 0-24.57-17.878l-2.355-1.551-2.107-1.356C653 313 653 313 652.106 311.105c-.147-2.925.838-4.186 2.472-6.597l1.753-2.616 1.919-2.767 1.945-2.851C668.614 284.042 677.716 272.71 688 262l1.686-1.768C696.603 253.01 703.376 246.2 712 241l3.188-2c3.852-1.37 5.91-1.254 9.812 0"/><path fill="#2a258a" d="M744 390c7.651.807 16.659 1.924 21.938 8 6.494 9.446 3.776 26.578 1.937 37.438-5.253 23.923-17.582 45.737-38.293 59.355-14.208 8.966-30.859 14.377-47.73 14.305l-1.993-.005c-2.078-.005-4.156-.018-6.234-.03q-2.127-.009-4.254-.014-5.186-.017-10.371-.049l1.135-1.274c3.642-4.16 6.859-8.445 9.928-13.038a639 639 0 0 1 12.25-17.438c6.445-8.873 12.732-17.853 19.007-26.847 2.59-3.705 5.196-7.398 7.805-11.09l1.486-2.104q3.617-5.12 7.24-10.236a3455 3455 0 0 0 19.982-28.571l1.991-2.87 1.784-2.577C743 391 743 391 744 390"/><path fill="#bedbfb" d="M422 380a2520 2520 0 0 1-12.312 19.25l-1.252 1.943c-10.042 15.532-20.491 30.8-30.84 46.128-13.228 19.56-13.228 19.56-26.24 39.265l-3.168 4.789-1.616 2.516-1.592 2.382-1.378 2.107c-2.114 2.138-3.639 2.389-6.602 2.62-8.614-3.33-16.156-8.889-23-15l-2.652-2.367c-4.79-4.501-4.79-4.501-6.348-6.633-.026-4.076 3.142-7.5 5.375-10.75l1.359-2.006A1569 1569 0 0 1 316 458l2.547-3.734a3037 3037 0 0 1 27.687-39.848l1.496-2.12q1.45-2.037 2.927-4.054a96 96 0 0 0 7.163-11.443c6.932-12.485 6.932-12.485 12.662-14.806 5.81-1.284 11.597-1.241 17.52-1.058 3.889.082 7.729-.152 11.61-.394 7.464-.465 14.91-.596 22.388-.543"/><path fill="#dcdafa" d="M653 627c2.362 3.865 4.09 8.056 5.938 12.188l1.65 3.447c1.4 3.118 2.61 6.043 3.412 9.365-1.32 3.398-1.32 3.398-4 6a462 462 0 0 0-2.77 3.184 502 502 0 0 1-3.043 3.254l-1.622 1.733Q650.288 668.59 648 671l-1.953 2.082c-4.94 5.12-10.48 9.501-16.047 13.918l-3.07 2.48C597.46 713 597.46 713 584 713c-1.732-2.13-1.732-2.13-3.469-5.133l-1.963-3.351q-1.036-1.82-2.068-3.641l-2.142-3.698C550 655.033 550 655.033 550 650l1.775-.196c31.982-3.601 62.775-9.838 92.733-21.86 5.189-2.045 5.189-2.045 8.492-.944"/><path fill="#dedcfa" d="m401 626 3.594 1.2 2.504.833q3.076 1.024 6.148 2.055c26.563 8.875 53.324 16.563 81.313 19.179 3.556.361 5.402.707 8.441 2.733-22.286 42.62-22.286 42.62-34 62-24.306-8.031-43.903-24.403-62-42l-2.395-2.273c-3.754-3.629-7.245-7.473-10.668-11.414l-2.347-2.7C390 653 390 653 390.008 650.734c1.459-4.02 3.155-7.906 4.93-11.797l1.091-2.431c1.594-3.537 3.22-7.044 4.971-10.506"/><path fill="#302b94" d="m605.68 379.867 2.433-.004c2.588-.002 5.175.005 7.762.012l2.67.003c15.17.018 30.302.368 45.455 1.122v1l-2.746.656c-4 1.652-5.014 3.219-7.317 6.844a1095 1095 0 0 1-2.332 3.55l-1.26 1.933c-2.428 3.642-5.019 7.166-7.595 10.704l-3.363 4.641-1.702 2.346q-2.463 3.401-4.915 6.81a2393 2393 0 0 1-18.73 25.66c-2.69 3.64-5.362 7.29-7.97 10.989l-1.358 1.927q-1.77 2.525-3.528 5.057c-2.224 2.936-4.384 5.486-7.184 7.883h-4c-1.818-2.339-3.24-4.503-4.687-7.062l-1.308-2.278c-7.222-13.037-13.294-27.518-15.426-42.346-.495-2.818-1.015-4.836-3.236-6.717a212 212 0 0 0-3.815-2.453C560 409 560 409 559.28 406.648l.219-2.273.156-2.29C560 400 560 400 561 397l2.313-.125L566 396l1.313-2.687c2.71-5.323 6.784-8.21 12.34-10.32 8.56-2.474 17.152-3.15 26.027-3.126"/><path fill="#322f9a" d="m367 383-1.312 2.063c-1.764 2.9-1.764 2.9-2.918 6.093-1.934 4.567-4.813 8.33-7.77 12.281a3306 3306 0 0 0-3.543 4.829l-1.779 2.423c-2.39 3.292-4.7 6.637-6.99 9.998a2326 2326 0 0 1-13.438 19.438C321.418 451.361 313.692 462.668 306 474c-3.813-.78-3.813-.78-5.492-2.758-10.517-18.004-15.516-37.956-15.883-58.742l-.113-2.434c-.076-5.212.724-9.06 3.767-13.36 5.81-5.758 15.106-6.593 22.846-7.706l3.194-.483c9.19-1.362 18.403-2.58 27.618-3.767l2.059-.27c7.702-1 15.232-1.768 23.004-1.48"/><path fill="#5040bd" d="m523.205 722.678 3.233.01 3.22-.05 3.088-.001 2.834-.01c2.97.458 3.557 1.058 5.42 3.373 1.013 2.522 1.013 2.522 1.917 5.57l1.04 3.459 1.09 3.74 1.138 3.846q1.189 4.028 2.36 8.062a1413 1413 0 0 0 3.043 10.299c.788 2.646 1.564 5.295 2.337 7.945.55 1.88 1.112 3.757 1.673 5.633l1.003 3.488.894 3.055c.574 3.299.328 5.667-.495 8.903-1.93 2.514-1.93 2.514-4.445 4.969l-2.766 2.73-2.914 2.801-2.844 2.8A593 593 0 0 1 536 811l-2.1 2.027c-1.83 1.692-1.83 1.692-4.9 3.973-3.924-.471-5.895-2.412-8.75-5.063l-2.66-2.468c-6.185-5.896-12.097-11.917-17.59-18.469l-2.192-2.144C496 786 496 786 496.306 782.446q.527-2.06 1.128-4.098l.595-2.245c.635-2.374 1.303-4.738 1.971-7.103q.621-2.314 1.235-4.63a976 976 0 0 1 3.174-11.594 2149 2149 0 0 0 1.968-7.106l1.283-4.611.578-2.1c4.558-16.209 4.558-16.209 14.967-16.281"/><path fill="#2a2c90" d="M721.191 386.672c2.288.014 4.532.113 6.809.328 0 3.694-1.282 5.778-3 9l5-8a424 424 0 0 1 4.75.375c.882.07 1.763.14 2.672.21 2.587.416 4.285 1.2 6.578 2.415l-2.57 3.672-1.696 2.422-3.769 5.384q-4.797 6.851-9.59 13.706a5861 5861 0 0 1-17.839 25.385 2761 2761 0 0 0-9.697 13.822 1581 1581 0 0 1-17.065 24.002 1252 1252 0 0 0-12.817 18.04 418 418 0 0 1-2.733 3.85 194 194 0 0 0-3.22 4.697C661 508 661 508 658.406 508.375L655.5 508l-3.172-.402c-5.185-.931-10.26-2.17-15.328-3.598l1.438-2.25c1.609-2.524 1.609-2.524 2.002-4.689.646-2.378 1.615-3.815 3.08-5.791l1.58-2.157 1.712-2.3q1.791-2.441 3.579-4.883l1.834-2.497c2.653-3.637 5.249-7.313 7.837-10.995l1.488-2.113L666 460c6.135-8.727 12.297-17.429 18.563-26.062a795 795 0 0 0 12.062-17.063l1.334-1.944q3.561-5.205 7.064-10.45l1.51-2.24a531 531 0 0 0 2.852-4.279c3.277-4.85 3.277-4.85 6.615-5.962l1.125-2.562C719 387 719 387 721.191 386.672"/><path fill="#220752" d="m569 793 2 1c-2.505 8.903-5.672 17.543-8.892 26.21a997 997 0 0 0-2.026 5.528l-1.212 3.283c-.845 2.894-1.248 4.994-.87 7.979 2.501 2.446 2.501 2.446 5.75 4.563 6.127 4.269 6.127 4.269 7.799 6.55 3.905 3.007 7.897 2.38 12.685 2.278l3.01-.018c3.17-.022 6.337-.072 9.506-.123q3.225-.03 6.45-.055 7.9-.067 15.8-.195c-2.652 2.95-2.652 2.95-5.787 3.4l-3.342.041-3.635.08-3.798.042q-3.722.05-7.442.128l-3.338.038c-2.812.004-2.812.004-4.658 2.271v-2l-2 2c-3.004.23-3.004.23-6.562.188l-3.567-.02C572 856 572 856 571 855c-2.639-.078-5.252-.09-7.89-.062l-5.361.025-2.946.019c-23.516.139-47.026-.093-70.54-.387q-3.967-.049-7.935-.092-6.305-.072-12.609-.156-2.355-.03-4.71-.056a1811 1811 0 0 1-6.475-.086c-1.219-.015-2.438-.03-3.693-.047C446 854 446 854 444 853l-1 2v-2q-2.22.173-4.437.375l-2.497.21L434 854l-1 2h-9v-2c-2.962-1.48-5.835-1.353-9.125-1.562l-3.883-.254L408 852l-1 2v-3l2.442.016q11.6.064 23.199.003c4.94-.023 9.876.001 14.814.055 3.282.026 6.563.013 9.845-.008q2.355-.004 4.71.04c12.878.229 21.497-2.956 30.934-11.961 2.012-4.086.357-8.12-.868-12.291l-1.107-3.163-1.207-3.513q-1.26-3.61-2.524-7.219c-2.07-6.032-3.796-11.584-4.238-17.959 4.746 2.408 7.558 5.658 10.875 9.688l3.184 3.785L500 812c4.41 5.363 4.41 5.363 9.625 9.875 3.734 3.34 5.68 7.45 7.375 12.125.192 4.885-1.921 7.69-4.844 11.387-1.358 1.728-1.358 1.728-2.156 4.613h36l-8-8c-2.426-3.64-2.716-4.701-2-9 2.03-3.253 4.514-6.088 7-9q2.19-2.718 4.375-5.437c3.674-4.479 7.505-8.78 11.406-13.06 3.574-4.033 6.903-8.256 10.219-12.503m5 61v1h5v-1z"/><path fill="#c4dffb" d="m439.16 379.902 3.902.036 3.91.027L450 380c-1.526 4.403-3.882 8.04-6.508 11.848l-1.346 1.977a2267 2267 0 0 1-4.271 6.238q-2.097 3.068-4.191 6.14l-2.764 4.045c-3.354 4.908-6.66 9.845-9.95 14.796-3.685 5.529-7.424 11.022-11.158 16.519l-2.541 3.745a3495 3495 0 0 1-12.125 17.759C384.925 477.927 374.985 492.98 365 508l-12-2c.858-3.433 1.453-4.996 3.315-7.81.488-.744.976-1.488 1.48-2.253.536-.806 1.073-1.611 1.627-2.44l1.709-2.591c1.867-2.827 3.743-5.648 5.619-8.469l3.905-5.898c12.186-18.388 24.52-36.675 36.887-54.941 3.57-5.277 7.113-10.57 10.64-15.876 3.221-4.824 6.488-9.617 9.755-14.41l2.034-2.99 1.931-2.834 1.734-2.545c2.06-2.934 2.06-2.934 5.524-3.04"/><path fill="#31319a" d="m424.723 379.902 3.34.036 3.347.027L434 380l1 2-2.5 3.75-1.66 2.49-3.771 5.656q-4.778 7.161-9.542 14.33c-9.446 14.213-18.988 28.36-28.537 42.504A8759 8759 0 0 0 354 503l-2 3-13-4 2.313-3c2.969-3.964 5.802-8.011 8.605-12.094l1.442-2.1c5.967-8.71 11.8-17.51 17.64-26.306 7.123-10.729 14.279-21.429 21.605-32.02 3.178-4.6 6.274-9.254 9.364-13.914q5.668-8.538 11.347-17.069l3.704-5.57 2.296-3.45 2.077-3.123c2.282-3.342 2.282-3.342 5.33-3.452"/><path fill="#c1ddfa" d="M730 388a424 424 0 0 1 4.75.375c.882.07 1.763.14 2.672.21 2.587.416 4.285 1.2 6.578 2.415l-2.57 3.672-1.696 2.422-3.769 5.384q-4.797 6.851-9.59 13.706a5861 5861 0 0 1-17.839 25.385 2761 2761 0 0 0-9.697 13.822 1581 1581 0 0 1-17.065 24.002 1252 1252 0 0 0-12.817 18.04 399 399 0 0 1-2.734 3.85 166 166 0 0 0-3.203 4.71C661 508 661 508 658.203 508.27l-2.953-.457-2.984-.418L650 507c.62-3.19 1.702-5.328 3.555-7.984l1.596-2.31 1.724-2.456 1.777-2.562q1.807-2.604 3.62-5.205a1249 1249 0 0 0 5.964-8.669c4.649-6.797 9.38-13.53 14.143-20.248 4.324-6.113 8.55-12.291 12.765-18.48A1034 1034 0 0 1 706 423.5a1435 1435 0 0 0 12.938-18.562l1.61-2.344A351 351 0 0 0 730 388"/><path fill="#332ca0" d="M506 674a81 81 0 0 1 8.875-.398l2.667-.01q2.795-.002 5.589.017c2.858.016 5.714 0 8.572-.02q2.711.004 5.422.013l2.601-.019c2.407.029 2.407.029 6.274.417 3.757 5.636 2.698 12.409 1.45 18.828a313 313 0 0 1-2.263 9.36l-.789 3.116-.793 2.926c-.235.87-.47 1.741-.714 2.638C542 713 542 713 539 715c-2.68.259-2.68.259-5.875.266l-3.484.007-3.641-.023-3.64.023-3.485-.007-3.195-.007C513 715 513 715 510 713c-1.648-4.228-2.631-8.668-3.75-13.062l-.996-3.647c-1.778-6.869-2.768-12.314-1.254-19.291z"/><path fill="#250955" d="M682 753c5.505 8.258 9.278 16.72 12.188 26.188l1.033 3.33c4.9 16.136 6.232 30.666 5.779 47.482l-4.266-1.43-2.399-.804c-7.785-2.554-15.171-3.293-23.335-3.766-1.024-4.57-.86-7.714.363-12.219l.94-3.578 1.01-3.703c3.764-13.94 5.888-27.387 6.253-41.81l.09-2.514.057-2.222C680 756 680 756 682 753"/><path fill="#2a238c" d="M513 725c6.986-.403 13.36.773 20 3 3.948 3.948 2.687 11.023 2.689 16.34-.271 8.943-.271 8.943-4.001 13.222A169 169 0 0 1 526 761c-2.422 1.74-4.802 3.53-7.184 5.324a545 545 0 0 1-7.488 5.504 153 153 0 0 0-7.281 5.594C502 779 502 779 500 779c-1.466-5.594-.353-9.665 1.203-15.055l.723-2.607a902 902 0 0 1 1.533-5.441c.786-2.753 1.554-5.51 2.318-8.268q.743-2.655 1.489-5.309l.691-2.469c1.446-5.058 3.136-9.948 5.043-14.851"/><path fill="#050022" d="M538.508 488.68C549.115 494.3 561.329 501.756 568 512c-.39 2.168-.39 2.168-1 4-4.326.558-8.3 1.003-12.164-1.277-2.068-1.817-3.963-3.705-5.836-5.723-6.916-7.441-12.456-12.04-22.937-12.562-10.29.442-16.288 5.406-23.158 12.598-4.32 4.506-7.8 7.671-14.217 8.276C486 517 486 517 484 516c1.17-8.177 7.423-12.737 13.688-17.562 12.823-9.32 25.06-16.958 40.82-9.758"/><path fill="#3c1c7a" d="m562 397-2 12-7.52-2.148c-8.594-2.103-16.815-3.212-25.668-3.164l-3.004.001c-7.522.093-14.51 1.045-21.824 2.752C499 407 499 407 496 406l.063-3.25c-.05-2.948-.286-4.984-1.063-7.75 21.18-5.248 46.725-8.137 67 2"/><path fill="#604ed5" d="m514.777 673.797 2.672-.017q2.804-.014 5.606-.02c2.867-.01 5.733-.041 8.6-.072q2.717-.01 5.435-.016l2.61-.038c2.417.01 2.417.01 6.3.366 3.757 5.636 2.698 12.409 1.45 18.828a313 313 0 0 1-2.263 9.36l-.789 3.116-.793 2.926c-.235.87-.47 1.741-.714 2.638C542 713 542 713 539 715c-2.696.243-2.696.243-5.91.23l-3.498-.005-3.654-.038-3.667-.001c-8.99-.046-8.99-.046-11.271-1.186l1-2 1.977.14c6.206.257 8.856-.545 14.023-4.14 2.694-.26 5.286-.089 8 0-.714-14.022-.714-14.022-2-28l-3.035.035-4.028.028-3.972.035C519 680 519 680 515.28 679.438c-3.046-.407-4.824-.364-7.718.5-1.176.35-2.352.7-3.563 1.062 1.202-8.068 3.126-7.165 10.777-7.203"/><path fill="#22103b" d="M508 821c4.23 3.76 7.17 7.583 9 13 .1 4.882-1.925 7.696-4.844 11.387-1.358 1.728-1.358 1.728-2.156 4.613l83 2c-4 3-4 3-6 4v-2l-2 2c-3.004.23-3.004.23-6.562.188l-3.567-.02C572 856 572 856 571 855c-2.639-.078-5.252-.09-7.89-.062l-5.362.025-2.946.019c-24.438.146-48.867-.146-73.302-.482l-5.323-.073Q461.087 854.22 446 854l-1-2 2.092-.025a7289 7289 0 0 0 21.56-.292q4.022-.06 8.045-.105c3.855-.046 7.71-.104 11.565-.164l3.633-.035 3.397-.06 2.98-.04c5.223-.534 8.162-2.288 11.478-6.279l1.797-2.125c2.832-3.654 2.567-6.032 2.043-10.484-.955-3.87-3.127-6.297-5.59-9.391zm66 33v1h5v-1z"/><path fill="#411b74" d="M741 525c5.75-.125 5.75-.125 8 1l-.176 1.977c-.353 6.317-.353 6.317 2.676 11.648L754 542c-1.51 4.227-4.185 5.83-8 8-3.607.949-6.847 1.074-10.562.914l-3.165-.133-3.273-.156-3.273-.133c-4.688-.208-9.137-.472-13.727-1.492 1-2 1-2 3.957-3.078q1.926-.593 3.856-1.172c6.243-1.952 11.866-4.424 17.601-7.613 2.762-1.215 4.604-1.368 7.586-1.137l2-8-6-2z"/><path fill="#3e1971" d="m306 532 1 4 2.95-.207c4.731.004 8.56 1.698 12.863 3.52q2.379.969 4.761 1.93l2.299.928c3.962 1.544 8.018 2.745 12.127 3.829-1.81 2.45-2.934 2.985-5.945 3.66-5.296.546-10.61.682-15.93.778l-3.145.138c-7.656.111-12.123-1.651-17.98-6.576 1.166-2.51 2.045-4.043 4.063-6 2.013-2.079 2.535-3.188 2.937-6"/><path fill="#2f1060" d="M513 652h26c4 9 4 9 4 12h-34z"/><path fill="#bc9ce1" d="M402 628c1.65.422 3.295.863 4.938 1.313l2.777.738L412 631c1 3 1 3 .243 4.958l-1.227 2.21-1.336 2.459-1.43 2.56c-3.227 5.84-6.066 11.5-8.25 17.813-2 0-2 0-3.543-1.54-.543-.687-1.085-1.376-1.644-2.085l-1.668-2.04c-1.613-3.29-1.132-4.808-.145-8.335 1.217-3.16 2.588-6.235 4-9.312l1.117-2.495c2.728-6.038 2.728-6.038 3.883-7.193"/><path fill="#bb9be1" d="m652 628 .794 1.82a2355 2355 0 0 0 3.581 8.117l1.25 2.866c.6 1.348.6 1.348 1.21 2.724l1.112 2.524c.9 2.112.9 2.112 3.053 2.949.832 1.797.832 1.797 1 4-1.363 2.14-1.363 2.14-3.312 4.25l-1.926 2.14C657 661 657 661 655 661l-14-29c3.673-2.448 6.546-4 11-4"/><path fill="#03000e" d="M374 748c2.297 2.297 2.574 3.513 3.375 6.617l.781 2.974.844 3.284 1.875 7.098.506 1.918c7.216 27.396 7.216 27.396 15.494 54.484l.793 2.462c1.786 5.274 3.655 10.537 8.621 13.554l2.336.859c2.802 1.061 4.226 1.601 6.375 3.75-6.728-.538-11.59-2.853-16-8-4.293-9.107-6.95-18.976-9.75-28.625l-.636-2.17C383.653 789.248 379.28 772.14 375 755l-2 1q-.062-3.5 0-7z"/><path fill="#7f6aef" d="M509.785 673.886q2.531 0 5.063.016l2.686.005c2.843.005 5.686.018 8.529.03l5.767.014q7.085.017 14.17.049l1 4-2-2a100 100 0 0 0-7.125-.625l-3.883-.227L531 675v2l4 2-1 4v-3l-3.035.035-4.027.027-3.973.036C519 680 519 680 515.28 679.438c-3.046-.407-4.824-.364-7.718.5-1.176.35-2.352.7-3.563 1.062 1.038-6.971 1.038-6.971 5.785-7.114"/><path fill="#03010e" d="M363 194c4.9 1.406 8.98 3.59 13.25 6.313l2.085 1.318C396.595 213.334 413.58 226.87 430 241l2.168 1.86c4.067 3.521 8.048 7.137 12.02 10.765l1.513 1.38A262 262 0 0 1 455 264c-3 0-3 0-5.312-2.09L447 259.062c-4.495-4.661-9.2-8.795-14.273-12.832-2.726-2.23-5.284-4.571-7.852-6.98-7.205-6.62-15.018-12.432-22.875-18.25l-1.857-1.376c-10.152-7.478-20.677-14.44-31.43-21.024l-2.22-1.362-2.029-1.229L363 195z"/><path fill="#4a44c1" d="M363 384c-11.22 5.745-33.49 10.9-45.812 7.5-3.396-.776-6.71-.558-10.188-.5 3.622-2.414 6.866-2.746 11.078-3.29l2.435-.327q2.562-.34 5.125-.67c2.562-.332 5.122-.681 7.682-1.033 9.964-1.328 19.625-2.005 29.68-1.68"/><path fill="#1c0d34" d="M725 160h7l1 2c3.434.836 3.434.836 7 1l2-2c2 2 2 2 2 5l2.25.75c2.951 1.341 4.598 2.86 6.75 5.25l-5-1v-2l-1.828-.402-2.422-.536-2.39-.527a66 66 0 0 1-4.141-1.062c-2.74-.584-5.278-.585-8.078-.57l-3.38.01-3.511.024-3.559.014q-4.346.018-8.691.049l1-3 16-1z"/><path fill="#3a1d68" d="M275 324v20h1v19l2 1c.268 8.036.268 8.036-2 12q-.76-3.561-1.5-7.125l-.434-2.016c-.83-4.037-1.112-7.75-1.066-11.859l-.492-2.304c-.555-2.947-.621-5.655-.606-8.653l.01-3.37.026-3.486.013-3.544q.018-4.321.049-8.643c2-1 2-1 3-1m-2 12 1 2Z"/><path fill="#34155e" d="m479 849 3 1c-2.898 2.898-5.897 2.316-9.781 2.344l-2.331.044c-3.298.062-6.596.102-9.893.144-2.405.033-4.81.079-7.214.124l-2.27.016c-4.214-.058-4.214-.058-7.511 2.328v-2q-2.22.173-4.437.375c-.824.07-1.648.14-2.497.21L434 854l-1 2h-9v-2c-2.962-1.48-5.835-1.353-9.125-1.562l-3.883-.254L408 852l-1 2v-3l2.442.016c17.006.094 33.995-.013 50.995-.453l2.48-.06q3.477-.086 6.954-.187l2.104-.05c3.636-.08 3.636-.08 7.025-1.266"/><path fill="#411b78" d="m713 186-3 2v2q-4.34 2.444-8.687 4.875l-2.475 1.395c-3.872 2.163-7.643 4.243-11.838 5.73 3.607-4.234 8.146-6.47 13-9l-3-1-2 2c-1.724.748-3.45 1.493-5.191 2.2-2.028.843-2.028.843-4.559 2.55L683 200l-3-1c26.325-15.511 26.325-15.511 33-13"/><path fill="#030312" d="M287 438c2.66 2.66 3.142 5.6 4.125 9.125a107 107 0 0 0 7 17.75l1.02 2.07c1.684 3.277 2.733 4.974 5.855 7.055q1.505 2.498 3 5a107 107 0 0 0 4.438 4.563l2.308 2.253L317 488a1420 1420 0 0 1 4 4c-8.917-1.647-16.965-13.104-21.892-20.229C292.55 461.66 287.058 450.25 287 438"/><path fill="#1f1f80" d="m424.723 379.902 3.34.036 3.347.027L434 380l1 2a3558 3558 0 0 1-6.875 10.438l-1.973 3.01-1.894 2.86-1.746 2.65C421 403 421 403 419 404c1.621-4.798 4.293-8.667 7.125-12.812l1.418-2.1Q429.266 386.54 431 384l-10-1-.805 2.2c-1.196 2.802-2.598 5.105-4.32 7.613l-1.633 2.394L413 397l-2-1q2.466-3.72 4.938-7.437l1.42-2.143 1.357-2.041 1.254-1.889c1.715-2.479 1.715-2.479 4.754-2.588"/><path fill="#dcc6f0" d="M314 335h1l1 9h1c1.306 10.391 2.334 20.51 2 31q2.188-.716 4.375-1.437l2.46-.81c2.175-.705 2.175-.705 4.165-1.753-1.875 3.875-1.875 3.875-3 5a86 86 0 0 1-4.562.563l-2.504.253L318 377c-2.553-14.081-4.71-27.667-4-42"/><path fill="#4031aa" d="M547 756c2.003 3.005 3.043 5.69 4.219 9.063.813 2.205.813 2.205 2.781 4.937 1.52 4.747 2.569 9.137 1 14l-3-1a76 76 0 0 1-2.687-7.937l-.671-2.328c-1.566-5.73-2.114-10.782-1.642-16.735"/><path fill="#1d0e34" d="M720 765c1.994 3.466 2.71 6.841 3.473 10.75l.387 1.982q.404 2.077.8 4.155c.396 2.08.806 4.157 1.217 6.234 1.543 7.934 2.67 15.798 3.123 23.879-1.618-3.097-2.49-5.804-3.125-9.25l-.508-2.703L725 798h-1c-.871-4.372-1.719-8.748-2.562-13.125l-.749-3.75-.693-3.633-.65-3.332c-.36-3.296-.045-5.933.654-9.16"/><path fill="#361d65" d="m265 397 3 1v33h-3c-1.156-6.42-1.148-12.739-1.125-19.25l-.012-3.297.004-3.156.004-2.864C264 400 264 400 265 397m1 5c-.744 9.128-1.256 17.879 0 27h1v-27z"/><path fill="#3b1f63" d="M778 253c1.633 2.893 2.277 5.071 2.414 8.383l.117 2.729.094 3.013.115 3.176c.553 17.889.342 35.804.26 53.699h-1l-.076-3.545q-.144-6.553-.296-13.105-.065-2.829-.125-5.657-.089-4.08-.187-8.162l-.05-2.526c-.127-5.067-.558-9.985-1.266-15.005h-1c-.157-7.716.325-15.315 1-23"/><path fill="#290c5b" d="m755 482 2 1c-.987 5.48-2.524 8.204-6.922 11.64-3.455 2.26-7.108 4.188-11.078 5.36l-2-1 1.33-1.13q2.995-2.555 5.982-5.12l2.092-1.777 2.022-1.739 1.856-1.587c1.82-1.745 3.26-3.594 4.718-5.647"/><path fill="#d9bff3" d="M314 303h2c.058 3.854.094 7.708.125 11.563l.05 3.29c.036 5.792-.186 10.688-2.175 16.147h-1q-.037-6.381-.055-12.762-.008-2.173-.02-4.345a1691 1691 0 0 1-.023-6.233l-.016-3.793C313 304 313 304 314 303"/><path fill="#140925" d="M767 534c3.057 2.367 3.982 3.942 5.125 7.688.355 4.653-1.531 7.483-4.238 11.136C763.792 557.547 759 561.29 754 565c0-3 0-3 2.52-5.777a335 335 0 0 1 3.293-3.16c5.127-4.608 5.127-4.608 9.187-10.063-.067-2.552-.067-2.552-.812-5.125C767 536.025 767 536.025 767 534"/><path fill="#030118" d="M479 438h2l-.875 2.438a70 70 0 0 0-2 7.937c-.986 4.682-2.84 8.434-5.125 12.625h-3l-.812 2.25c-1.13 2.616-2.397 4.552-4.188 6.75l-2-1 1.469-2.21c5.895-9.184 10.293-18.747 14.531-28.79"/><path fill="#37146b" d="m512 657 1 3-1 2h27l2-4c2 3 2 3 2 6h-34z"/><path fill="#030017" d="m750 494 2 1-2 2v3q-3.78 1.91-7.562 3.813c-.705.356-1.41.712-2.135 1.08A498 498 0 0 1 734 508l-1.984.966c-4.658 2.153-4.658 2.153-8.016 1.034l16-8-2-2q2.93-1.544 5.875-3.062l3.305-1.723z"/><path fill="#2c1650" d="m230 471.813 2.563.019c2.437.168 2.437.168 4.687.742L239 473l1-1c1.996-.168 1.996-.168 4.438-.187l2.433-.043C249 472 249 472 251 474c2.323.4 4.657.74 7 1v1l-16 1v-1h-14v-1l-7-1c3.128-1.832 5.39-2.248 9-2.187"/><path fill="#4940be" d="m306 391-3 1-.812 2.453C301 397 301 397 298.25 398.11l-3.25.641c-4.123.77-4.123.77-8 2.25.634-2.854 1.325-4.557 3.809-6.187 5.194-2.593 9.316-3.944 15.191-3.813"/><path fill="#141563" d="m701 451 2 1-1.645 2.125c-4.776 6.148-4.776 6.148-7.918 13.188-1.625 4.17-3.322 5.74-6.816 8.363-1.893 1.414-1.893 1.414-3.621 4.324l-2-1 1.082-1.494C691.64 464.323 691.64 464.323 701 451"/><path fill="#e1edfa" d="M447.29 379.508 450 380c-1.438 3.907-2.886 6.197-6 9 1.875-4.75 1.875-4.75 3-7-4.052-.609-7.162-.501-11 1-3.332 3.407-5.625 7.56-8.004 11.656C426 398 426 398 424 399c4.273-11.887 9.595-20.923 23.29-19.492"/><path fill="#3f1776" d="M329 183c10.6.263 19.67 4.223 29 9-3.926 1.309-5.42.194-9.062-1.406-2.122-.855-2.122-.855-4.938.406-2.043-.777-2.043-.777-4.187-1.937l-2.168-1.153L336 187v-2l-7-1z"/><path fill="#1d0d38" d="M811 489c-3.565 2.377-6.607 2.592-10.75 3-4.15.418-8.109.878-12.113 2.086-3.026.882-4.271 1.06-7.137-.086l1-2a96 96 0 0 1 7.813-2.187l2.312-.55c6.468-1.414 12.335-1.422 18.875-.263"/><path fill="#321757" d="M325 804h1q.57 3.49 1 7l-1 1c-.072 2.02-.084 4.042-.062 6.063l.027 3.347L326 824h-2v8h-3c-.25-1.434-.474-2.873-.687-4.312l-.387-2.426L320 823l1.406-1.281c2.576-2.778 2.436-6.281 2.781-9.907l.249-2.271c.2-1.846.383-3.693.564-5.541"/><path fill="#1a0a31" d="M619 850c-1.706 2.127-2.57 2.934-5.31 3.356l-2.698-.028-2.992-.015-3.125-.063-3.055-.016A151 151 0 0 1 584 852v-1a18265 18265 0 0 1 16.157-.573q2.957-.106 5.913-.208l3.587-.127A285 285 0 0 1 619 850"/><path fill="#4f46cd" d="M334 387c-3.919 4.05-7.224 4.58-12.598 5.02-2.34-.02-4.153-.427-6.402-1.02a68 68 0 0 0-4.25-.062L307 391c7.095-4.73 18.66-4.293 27-4"/><path fill="#0e0b2f" d="M674 380q4.063-.04 8.125-.062l2.305-.026c4.309-.018 8.325.227 12.57 1.088l-1 3-21-1z"/><path fill="#030011" d="M277 495c6.75.875 6.75.875 9 2 1.507 4.503 2.306 9.254 2 14-1.5-1.25-1.5-1.25-3-3v-4h-3l-1-3c-1.997-1.685-1.997-1.685-4-3h3v-2zm6 5 1 3Z"/><path fill="#351964" d="M273 453c2.43 3.644 2.162 5.712 2 10l2 1c.594 2.649.742 5.292 1 8l3 1-1 5c-4.667-4.167-7.743-8.023-8.285-14.309-.025-3.255-.002-6.448.285-9.691zm3 15 1 2Z"/><path fill="#000004" d="M418 845c5.23.445 9.111 1.841 13.844 4.078 2.677 1.145 5.267 1.626 8.156 1.922v1c-9.396.107-18.64-.007-28-1v-1l12-1-3-2z"/><path fill="#311067" d="m296 479 16 16c-1.607-.425-3.21-.866-4.812-1.312l-2.708-.739c-2.64-1.01-3.802-1.697-5.48-3.949-.95-2.48-.95-2.48-1.687-5.187l-.762-2.731z"/><path fill="#ba9ae5" d="m737 294 3 1v14h-1l-1 27h-1z"/><path fill="#060210" d="m648.813 848.438 2.388.158q2.9.195 5.799.404l1 3h-2l-1 2-3-1h-3l-3-1-1 2v-3l-10-1v-1c4.687-1.268 9.033-.911 13.813-.562M649 850l3 2 3-2z"/><path fill="#3c35a9" d="M304 390h17l-2 1v2c-11.522 2.296-11.522 2.296-17 2z"/><path fill="#0a0319" d="m283 539 3 1-.125 3.25c.114 3.407.338 4.957 2.125 7.75-2.84 0-5.237-.403-8-1-.37-6.4-.37-6.4 1.5-9.437z"/><path fill="#1f064b" d="m736 532 7 2c-2.7 3.255-6.238 4.775-10 6.5l-2.008.932c-5.514 2.49-11.075 4.276-16.992 5.568 2.42-2.838 4.674-3.783 8.188-4.937 3.602-1.238 6.992-2.56 10.375-4.313C736 536 736 536 738 536z"/><path fill="#e1eefa" d="M699 385c6.433-.095 12.658-.153 19 1-1.35 3.837-3.078 6.652-5.625 9.813l-1.914 2.394L709 400c0-3.413.669-4.395 2.5-7.187l1.406-2.168L714 389c-1.952-1.952-5.452-1.71-8.062-2.062l-3.91-.536L699 386z"/><path fill="#100723" d="M728 812c2.522 2.522 2.428 3.811 2.75 7.313l.297 2.863c-.051 3.063-.745 5.074-2.047 7.824h-3q.212-3.657.438-7.312l.119-2.092c.192-3.068.466-5.666 1.443-8.596"/><path fill="#1e0d37" d="m794.625 535.313 2.852.8C800 537 800 537 803 539l-2 4v-3h-9l-1-2a129 129 0 0 0-7-2v-1c4.014-1.088 6.649-.843 10.625.313"/><path fill="#1c0e35" d="m222 536 2 1-2 2c-.236 4.17.017 7.944 1 12l-7-1c.94-5.68 1.862-9.724 6-14m-4 8 1 3Z"/><path fill="#191970" d="m434 405 1 2-1.426 1.941c-4.166 5.682-4.166 5.682-7.199 11.997-1.58 3.52-2.923 4.476-6.375 6.062 1.645-5.005 4.565-8.982 7.563-13.25l1.537-2.219c3.722-5.353 3.722-5.353 4.9-6.531"/><path fill="#351b5f" d="M274 236h4v5l-2 1c-.505 2.09-.505 2.09-.687 4.5l-.262 2.469L275 251l1 1c.04 2 .043 4 0 6-3.914-4.281-3.914-4.281-4.312-7.625C272 248 272 248 273 245c-.39-2.143-.39-2.143-1-4l2-1z"/><path fill="#1a0c34" d="M309 573c3.806.672 7.352 1.727 11 3v6h-3l-2 1c-2.947-2.434-3.339-4.316-4-8z"/><path fill="#270b55" d="M719 550h22v2c-4.822 1.326-9.388.9-14.312.563l-2.534-.159q-3.078-.195-6.154-.404z"/><path fill="#1b0e37" d="M275 518v2l-17 4-1-3a982 982 0 0 1 7.313-2.062l2.091-.604c5.256-1.447 5.256-1.447 8.596-.334"/><path fill="#371d63" d="m278 373 1 3 2 1v10l-3 1-1 2-4-2 1.375-2.437c1.884-4.13 2.787-8.125 3.625-12.563m0 5v6h1v-6zm-3 9 1 2Z"/><path fill="#261345" d="M780 334q-.212 5-.437 10l-.12 2.832c-.247 5.44-.686 10.775-1.443 16.168h-1q-.29-2.718-.562-5.437l-.317-3.06L776 352l1-1c.073-2.697.092-5.367.063-8.062l-.014-2.3q-.02-2.818-.049-5.638c2-1 2-1 3-1"/><path fill="#3e2fa1" d="M549 770c3 1 3 1 4.625 3.938L555 777l1 2a76 76 0 0 1-1 5l-3-1c-.95-1.926-.95-1.926-1.687-4.312l-.762-2.364C549 774 549 774 549 770"/><path fill="#1d0e36" d="M711 731c2.237 3.355 3.167 6.596 4.188 10.438l.576 2.025c.933 3.475 1.607 6.123.236 9.537v-3h-2c-2.631-6.483-3.393-12.023-3-19"/><path fill="#180b2e" d="m669 183 2 1c-2.153 3.229-3.657 4.17-7 6l-1.937 1.125c-2.642 1.12-5.23 1.489-8.063 1.875 2.618-2.955 5.676-4.758 9.063-6.75l3.222-1.922z"/><path fill="#1f0e37" d="M369 176q2.514.428 5 1v2l6 2v2l3 1v1c-5.687-.464-9.257-1.775-14-5l-1-3z"/><path fill="#190b30" d="M439 224h5l.313 1.938L445 228l3 1a131 131 0 0 1 4 5 98 98 0 0 0 3 3c-5.885-1.324-9.96-4.653-14-9v-2z"/><path fill="#180b32" d="M693 844v1l-2.555.402-3.32.535-3.305.528c-2.758.39-2.758.39-4.82 1.535a76 76 0 0 1-5-1c2-3 2-3 4.438-3.75 4.92-.345 9.671.184 14.562.75"/><path fill="#1b0c33" d="m261 537-1.687.75c-2.713 1.466-4.949 3.28-7.313 5.25l-1-2-6 2v-3a353 353 0 0 1 5.188-2.062l2.917-1.16c3.104-.834 4.844-.665 7.895.222"/><path fill="#3a166d" d="M712 184h13c-3.158 3.158-3.902 3.451-8.062 4.125-3.588.57-3.588.57-6.938 1.875v-2l-2-1 4-2z"/><path fill="#4a40c5" d="M506 674q3.51.43 7 1l-1 4-8 2c.875-5.875.875-5.875 2-7"/><path fill="#151766" d="M714 433c0 4.91-2.408 8.907-5 13-1.947 1.801-3.616 2.78-6 4 1.471-4.357 3.83-7.72 6.625-11.312l1.273-1.667A817 817 0 0 1 714 433"/><path fill="#190c2f" d="M317 164v2l-3.625.813c-2.9.708-4.979 1.495-7.687 2.875C303 171 303 171 300 170c4.78-4.332 10.48-8.135 17-6"/><path fill="#5646c6" d="M540 708c.563 1.938.563 1.938 1 4-1 1-1 1-2.766 1.114l-2.27-.016-2.45-.01-2.577-.025-2.587-.014q-3.175-.02-6.35-.049c2.863-2.863 4.659-2.994 8.688-3.062L534 710v1h5z"/><path fill="#261345" d="M774 364h3q-.214 3.094-.437 6.188l-.247 3.48A66 66 0 0 1 775 382h-1c-.833-6.253-1.039-11.768 0-18"/><path fill="#20103c" d="M699 694c1.882 2.822 3 5.279 4.188 8.438l1.105 2.87c.726 2.763.685 4.056-.293 6.692l-2-1v-5l-2-1c-.668-1.742-.668-1.742-1.187-3.875l-.543-2.117C698 697 698 697 699 694"/><path fill="#d6e4f6" d="M730 388a424 424 0 0 1 4.75.375l2.672.21c2.569.414 4.336 1.127 6.578 2.415l-5 5 2-5h-12z"/><path fill="#4c1f86" d="M680 200c-.125 1.875-.125 1.875-1 4-1.99.696-3.993 1.355-6 2-3.09 1.872-6.05 3.915-9 6l-2-1q2.591-1.91 5.188-3.812l2.917-2.145C677.25 200 677.25 200 680 200"/><path fill="#1c0d34" d="M678 176h6v3l-11 5-2-2 7-4z"/><path fill="#291549" d="M787 411h1l-.035 1.828-.028 2.422-.035 2.39c.094 2.267.466 4.189 1.098 6.36h-1l-1 11h-1l-1-17h2z"/><path fill="#200f3c" d="M767 534c3.085 2.388 4.324 4.278 4.938 8.063C772 546 772 546 770.563 548L769 549v-3q-.463-2.538-1-5.062c-1-4.73-1-4.73-1-6.938"/><path fill="#331a5b" d="M244 487v2l8 1c-3.854 1.387-7.008.575-11 0-2.976-.245-5.955-.407-8.937-.562l-2.362-.131q-2.85-.157-5.701-.307v-1l8.875-.5 2.55-.145 2.442-.136 2.254-.127A80 80 0 0 1 244 487"/><path fill="#100724" d="m601 232 2 1a391 391 0 0 1-4.75 4.563l-2.672 2.566C593 242 593 242 590.672 241.777L589 241c3.168-3.44 5.598-5.453 10-7z"/><path fill="#1b0c33" d="m366.688 843.375 3.574.336L373 844l-1 3c-10.558-.964-10.558-.964-15-2 3.74-2.493 5.29-2.06 9.688-1.625"/><path fill="#1e0f38" d="M681 648c3 3.75 3 3.75 3 6l2 1c.407 2.322.744 4.657 1 7-4.344-2.247-5.163-5.556-6.582-9.941C680 650 680 650 681 648"/><path fill="#120d27" d="m406 626 2.012.621 2.675.817 2.637.808c2.546.717 5.076 1.272 7.676 1.754v3q-2.596-.683-5.187-1.375l-2.918-.773c-2.717-.8-5.286-1.755-7.895-2.852z"/><path fill="#371d5e" d="M209 477h3l-.125 3.313c-.196 3.776-.196 3.776 2.125 6.687-2.058.531-3.883 1-6 1-.125-7.625-.125-7.625 1-11"/><path fill="#461b7f" d="M456 268c3.588 1.495 5.685 3.545 8.25 6.438l2.14 2.37C468 279 468 279 468 282l-4-1h2a2696 2696 0 0 0-3.312-3.812l-1.864-2.145c-1.757-2.025-1.757-2.025-3.554-3.68C456 270 456 270 456 268"/><path fill="#240851" d="m310 549 18 2v1c-2.228.223-4.457.428-6.687.625l-3.762.352c-3.48.023-5.476-.436-8.551-1.977z"/><path fill="#2a134f" d="M783 532v3l-9-1-1 2-4-1v-3c4.97-.913 9.03-.913 14 0"/><path fill="#190b2f" d="M330 836c5.508.59 10.649 1.567 16 3l-2 2c-5.45-.272-9.208-1.245-14-4z"/><path fill="#1c0e34" d="M670 622c3.43 3.756 4.564 8.235 6 13-3-1-3-1-4.203-2.707l-1.047-2.106-1.078-2.082c-.784-2.456-.513-3.705.328-6.105"/><path fill="#221040" d="M335 592c5.538.615 5.538.615 7.875 2.563L344 596l-6 3z"/><path fill="#190b2e" d="m727 583 3 1c-3.329 3.595-6.99 6.224-11 9l-2-1c6.266-6.445 6.266-6.445 10-9"/><path fill="#121369" d="m684 435 1 4a157 157 0 0 1-3.875 3.75c-2.413 2.555-4.241 5.29-6.125 8.25l-2-1z"/><path fill="#1d0e34" d="M392 190c3.18 1.538 6.215 3.256 9.25 5.063l2.703 1.597L406 198v1h-5l-.687-1.937L399 195l-2.5-.5-2.5-.5c-1.312-2.062-1.312-2.062-2-4"/><path fill="#4d2089" d="M699 191c-3.374 2.834-6.96 4.299-11 6l-2.75 1.75L683 200l-3-1q3.896-2.298 7.813-4.562l2.236-1.327 2.158-1.24 1.984-1.158C696 190 696 190 699 191"/><path fill="#52228f" d="M439 252c4.074 1.61 6.765 4.538 9.75 7.625l1.535 1.563A897 897 0 0 1 454 265c-3 0-3 0-5.156-1.898l-2.344-2.477c-2.454-2.577-4.529-4.644-7.5-6.625z"/><path fill="#030013" d="M418 845c5.966.508 10.638 2.386 16 5v1c-7.174.27-10.158-2.105-16-6"/><path fill="#0c051c" d="M718 838c-2.663 2.663-4.653 2.944-8.36 3.098l-2.39-.035-2.422-.028L703 841c2.778-1.852 4.334-2.486 7.5-3.187l2.344-.543C715 837 715 837 718 838"/><path fill="#040118" d="m570 779 2 1c.933 2.992 1.244 5.878 1 9-2.437 3.063-2.437 3.063-5 5l1-5h2z"/><path fill="#251c7d" d="m501 772 1 3 6-2c-4.625 4.875-4.625 4.875-8 6l-1-6z"/><path fill="#7662e5" d="M539 725c2 1 2 1 2.852 3.11l.773 2.64c.39 1.292.39 1.292.79 2.61.584 2.637.692 4.948.585 7.64-4.416-4.416-4.51-10.072-5-16"/><path fill="#5f50d8" d="M513 675h13v1l-2.875.375c-3.212.342-3.212.342-5.125 2.625-3.125-.375-3.125-.375-6-1z"/><path fill="#17196a" d="m449 382 2 1-1.277 1.828-1.66 2.422-1.653 2.39c-1.306 2.186-1.96 3.875-2.41 6.36l-3-2z"/><path fill="#461b81" d="M329 183c6.56.39 11.945 1.421 18 4-3.766 1.255-5.372.37-9-1l-1 2-1-3-7-1z"/><path fill="#210f3c" d="M325 804h1q.57 3.49 1 7l-1 1c-.072 2.02-.084 4.042-.062 6.063l.027 3.347L326 824h-2q-.04-3.594-.062-7.187l-.026-2.042c-.018-3.725.195-7.15 1.088-10.771"/><path fill="#d4d1f0" d="m573 649-1 2h-6v1h-6v-3c8.429-1.286 8.429-1.286 13 0"/><path fill="#1b0c31" d="m697 606-12 6v-3a205 205 0 0 1 3.75-2.062l2.11-1.16C693 605 693 605 697 606"/><path fill="#391e6b" d="m266 431 2 1c.594 2.649.742 5.292 1 8-1.937-.312-1.937-.312-4-1-1.045-3.136-1.002-3.995 0-7z"/><path fill="#22113f" d="M356 686c1.137 3.404.84 5.775.063 9.25l-.59 2.703L355 700h-3c1.148-4.754 2.383-9.379 4-14"/><path fill="#0f0b2b" d="m471 644 9 1v3l-9-1z"/><path fill="#170b32" d="M676 616c-3.75 3-3.75 3-6 3l-1 3h-2c0-4 0-4 1.688-5.812 2.891-1.486 4.264-1.12 7.312-.188"/><path fill="#381b66" d="M284 498c1.109 3.326 1.542 6.53 2 10l-1-4h-3l-1-3c-1.997-1.685-1.997-1.685-4-3 3.1-1.033 4.056-1.178 7 0"/><path fill="#10053c" d="M484 431h1c-.365 5.664-1.055 10.007-4 15h-1c-.332-4.754.406-7.056 3-11 .696-2.191.696-2.191 1-4"/><path fill="#15052f" d="m447.75 850.875 2.113.027c1.713.024 3.425.06 5.137.098v1l-2.117.148-2.758.227c-.905.07-1.81.14-2.742.21-2.562.21-2.562.21-4.383 2.415v-2h-7c3.742-2.45 7.442-2.23 11.75-2.125"/><path fill="#301657" d="M341 733c.625 1.813.625 1.813 1 4-2 3-2 3-5 5-.981-3.053-.981-4.947 0-8h3z"/><path fill="#eeecf8" d="M550 650h14v1l-11 1-1 3z"/><path fill="#d4ccf4" d="M618 637h9c-3.152 2.74-5.648 3.553-9.75 4.188l-2.984.48L612 642c1.952-1.952 3.532-2.848 6-4z"/><path fill="#32175e" d="M789 472h8l1 2-6-1v2c-2.906 1.257-4.796 2-8 2l1-3h3z"/><path fill="#020010" d="m323 384 12 1c-3.868 1.934-5.15 2.233-9.25 2.125l-2.703-.055L321 387z"/><path fill="#b3d2f8" d="m438.504 381.902 3.058.036 3.067.027L447 382l-1 2-3.687-.25c-3.48-.025-4.251.209-7.313 2.25l-2 2c2.297-5.973 2.297-5.973 5.504-6.098M432 388v3Z"/><path fill="#030111" d="M457 267c1.938.813 1.938.813 4 2l1 3 3 1a95 95 0 0 1 4 5l-1 2c-4.27-4.055-7.929-7.963-11-13"/><path fill="#030212" d="M495 783c3.451 4.247 6.733 8.611 10 13l-2 1a471 471 0 0 1-4-4.75l-2.25-2.672C495 787 495 787 495 783"/><path fill="#01000a" d="M343 730h1a316 316 0 0 1-.312 5.313l-.176 2.988c-.558 2.943-1.197 3.88-3.512 5.699.596-4.869 1.57-9.328 3-14"/><path fill="#1b0c31" d="M708 599c-2.881 2.241-5.747 4.332-9 6l-3-1c4.346-3.545 6.367-5.148 12-5"/><path fill="#1a0c30" d="m745 570 3 1-8 7-2-3a210 210 0 0 1 3.313-2.562l1.863-1.442z"/><path fill="#361962" d="M282 541h1l2 9-4 1c-.99-2.969-1.238-4.909-1-8z"/><path fill="#231141" d="m777 496-1.812.875c-3.712 1.909-5.54 3.32-7.188 7.125v-8c3.325-1.108 5.622-.845 9 0"/><path fill="#03010f" d="M280 377c1.822 3.645 2.66 6.004 3 10l-2 3-4-1 4-2z"/><path fill="#ba94e4" d="m336 240 1 2-3.187-.375c-3.669-.004-3.669-.004-5.391 1.71-1.22 1.494-2.33 3.076-3.422 4.665l-1-3c2.65-5.3 6.504-5.317 12-5"/><path fill="#20103b" d="M720 765c1.671 2.962 2.327 5.37 2.625 8.75l.227 2.422L723 778l-3-1c-.928-4.333-.928-7.667 0-12"/><path fill="#1c0c31" d="M287 551c3.83 1.453 5.12 3.429 7 7-3 0-3 0-4.387-1.312L286 552z"/><path fill="#2f0f61" d="m301 500 7 2-2 2-3-1v7c-2.094-3.402-2.18-6.053-2-10"/><path fill="#200f3c" d="M339 740c1.722 2.634 2.005 3.924 1.813 7.125C340 750 340 750 337 752q.214-2.157.438-4.312c.08-.801.162-1.602.246-2.426C338 743 338 743 339 740"/><path fill="#221141" d="m241 524 3 3-3 1v2l-5 2-1-3 6-3z"/><path fill="#0b0c43" d="m366 381 9 1v1h-7l-.812 2.375C366 388 366 388 363 390l.938-2.25c1.19-2.914 1.19-2.914 2.062-6.75"/><path fill="#1a0b2f" d="m385 184 3 1v2c1.96 1.637 1.96 1.637 4 3-3 1-3 1-4.824.223L382 187z"/><path fill="#1c0e35" d="m343 165 1 2q2.495.524 5 1l3 2c-3.815 1.467-6.29.433-10-1z"/><path fill="#120727" d="m696 841 3 2-1 2-10-1v-2c2.986-.995 4.891-1.233 8-1"/><path fill="#100622" d="M324 824h2l.402 1.898.536 2.477.527 2.46c.458 2.194.458 2.194 1.535 4.165-3-1-3-1-4.187-3.25-.812-2.748-.976-4.904-.813-7.75"/><path fill="#1f0f3b" d="M273 534c-3.534 2.12-6.944 2.532-11 3l1-3c3.694-1.231 6.206-.644 10 0"/><path fill="#020010" d="m289 529 1 2c-4.053.982-7.839 1.082-12 1 3.276-3.276 6.51-3.125 11-3"/><path fill="#161769" d="M652 480h1v5l-3 1a90 90 0 0 0-4 4c1.368-3.99 3.204-6.843 6-10"/><path fill="#3e2270" d="m265 397 3 1v10h-1l-1-5-2 1z"/><path fill="#2f1851" d="M778 348h1l-1 15h-1a357 357 0 0 1-.625-5.25l-.352-2.953c-.024-2.931.446-4.342 1.977-6.797"/><path fill="#d1bde7" d="M358 256c3.21 1.382 5.05 2.924 7.25 5.625l1.578 1.914L368 265h-3a173 173 0 0 1-5-6l-2-1z"/><path fill="#3e1e68" d="M640 850c1.437-.081 2.874-.14 4.313-.187l2.425-.106c2.74.355 3.554 1.187 5.262 3.293-3 0-3 0-6-1l-1 2v-3h-5z"/><path fill="#22103d" d="M336 752c1.031 3.27.964 5.86.563 9.25l-.31 2.703L336 766c-2-2-2-2-2.012-4.059l.325-2.379.3-2.37C335 755 335 755 336 752"/><path fill="#120c23" d="m391 654 5 5 1.813 1.688C399 662 399 662 399 664h-3c-1.387-1.68-1.387-1.68-2.687-3.875l-1.325-2.18C391 656 391 656 391 654"/><path fill="#1a0b30" d="m714 592 3 2-9 5v-3c3-2.187 3-2.187 6-4"/><path fill="#1d0e37" d="m224 547 7 2v-2h2l-1 3c-2.812.625-2.812.625-6 1l-3-2z"/><path fill="#341a5a" d="m808 474-2 3-13-1v-1c5.025-.625 9.925-1.13 15-1"/><path fill="#3f38af" d="m331 386 7 1-2 3-7-1z"/><path fill="#b1c4ed" d="M391 381h8l1 3h-10z"/><path fill="#ba9ae5" d="M685 267c0 4.39-2.128 5.77-5 9l-2-1c1.784-3.823 3.432-5.621 7-8"/><path fill="#1f0e36" d="m357 172 7 1v2l2 1-3 1v-2l-3 1-3-2z"/><path fill="#231042" d="m682 843 11 1v1l-12 1z"/><path fill="#100a2f" d="m414 681 5 1 1 4c-1.875-.25-1.875-.25-4-1-1.25-2.062-1.25-2.062-2-4"/><path fill="#100931" d="m588 644-2 2c-2.383-.023-2.383-.023-5.125-.375l-2.758-.336L576 645v-1c4.256-1.16 7.684-.762 12 0"/><path fill="#321a57" d="M217 544c2.335 2.257 4.187 4.28 6 7l-7-1z"/><path fill="#160a2b" d="M235 531c-2.395 2.9-4.312 3.502-8 4 1-3 1-3 3.438-4.25C233 530 233 530 235 531"/><path fill="#1c0f39" d="m771 383 3 1v3l4 1-3 2c-2-1.25-2-1.25-4-3z"/><path fill="#170a2d" d="m468 249 8 6-1 2c-2.629-1.522-4.844-2.844-7-5z"/><path fill="#281447" d="M765 191c1.903 2.855 2.462 4.42 3.125 7.688l.508 2.449L769 203c-2.769-2.501-4.643-4.194-5-8 .438-2.25.438-2.25 1-4"/><path fill="#1d0e33" d="M757 177c3.483 3.019 4.792 5.57 6 10l-3-1v-4l-3-1z"/><path fill="#362896" d="m549 770 3 1c.625 2.313.625 2.313 1 5l-2 3c-1.498-3.371-2-5.204-2-9"/><path fill="#d4d0f2" d="M447 701c3.403 1.059 6.014 2.009 9 4l-1 3c-3.084-2.056-5.422-4.352-8-7"/><path fill="#110f2b" d="M489 676c1.102 4.408.587 5.892-1 10l-3-1z"/><path fill="#6657e0" d="M528 676v2c-6.055.195-6.055.195-8 0l-2-2c7.75-1.125 7.75-1.125 10 0"/><path fill="#0f0b2d" d="m457 641 7 1v3l-7-1z"/><path fill="#220951" d="m755 482 2 1-2 7h-3c1.875-5.75 1.875-5.75 3-8"/><path fill="#131567" d="m621 432 1 2-6 8-1-4c2.375-2.687 2.375-2.687 5-5z"/><path fill="#303097" d="m731 411 1 3c-1.215 1.824-1.215 1.824-2.937 3.688l-1.715 1.886L726 421c0-3.396.522-4.066 2.5-6.687l1.406-1.887z"/><path fill="#111260" d="M654 384h3c-1.394 4.435-3.606 6.874-7 10z"/><path fill="#21113c" d="m776 243 1 2 3 1h-2v5h-3z"/><path fill="#1c0e32" d="m643 199 2 1c-1.125 1.938-1.125 1.938-3 4-3.187.75-3.187.75-6 1 2.257-2.335 4.28-4.187 7-6"/><path fill="#1c0d34" d="M333 764h1c1.23 6.4 1.23 6.4.063 9.438L333 775c-1.286-7.429-1.286-7.429 0-11"/><path fill="#2c164e" d="M719 753c1.176 3.674 1.074 7.17 1 11l-3-1c.458-3.47.891-6.674 2-10"/><path fill="#1b0d33" d="M350 704c2 3 2 3 1.625 5.688L351 712l-3 1c.486-3.123.999-5.996 2-9"/><path fill="#110c2f" d="m485 688 1 2-2 3h-2l-1 2-1-2c.75-2.062.75-2.062 2-4z"/><path fill="#110a30" d="m437 636 10 2c-4.18 2.09-4.804 2.166-9 1z"/><path fill="#1e0e39" d="M374.125 611.938 377 613v3c-5.75-1.75-5.75-1.75-8-4 2-1 2-1 5.125-.062"/><path fill="#21103e" d="m817 528 1 2c2.314.73 4.648 1.401 7 2l-3 2-3-1v-2h-3z"/><path fill="#210f3c" d="M778 455h2l-2 10-2-4z"/><path fill="#251244" d="m276 355 3 1c.125 2.875.125 2.875 0 6l-2 2c-1-1-1-1-1.098-2.848z"/><path fill="#050217" d="M383 325c0 3 0 3-2 6-2.125.688-2.125.688-4 1 1.393-3.367 2.979-4.986 6-7"/><path fill="#0a031a" d="M473 256c3.914 1.27 5.79 2.512 8 6-3 0-3 0-4.387-1.312z"/><path fill="#261043" d="M439 224h5l.438 1.875c.494 2.158.494 2.158 1.562 4.125-1.937-.312-1.937-.312-4-1l-1-3z"/><path fill="#23103f" d="m619 216 2 1c-.75 1.938-.75 1.938-2 4-2.495.966-4.297 1-7 1z"/><path fill="#3a1c62" d="M617 853h7l-1 3-2.375-.562c-2.596-.698-2.596-.698-4.625.562z"/><path fill="#381b5f" d="M650 849h7l1 3h-2l-1 2z"/><path fill="#290b5b" d="m604 718 2 2-8 4v-3z"/><path fill="#21103a" d="m379 630 2 3c-1.375 2.5-1.375 2.5-3 5h-2c1.875-5.75 1.875-5.75 3-8"/><path fill="#241142" d="M800.688 537.375 803 538l-1 5-1-3-6-1c3-2 3-2 5.688-1.625"/><path fill="#13092e" d="m291 533-5 5-1-5c3.75-1.125 3.75-1.125 6 0"/><path fill="#2f155a" d="m279 512 1 3-8 1 1-3 6 1z"/><path fill="#1b1c7a" d="m396 419 1 4-3 1-1 3-2-1z"/><path fill="#110a32" d="m723 235-1.812.813c-2.16 1.172-3.546 2.38-5.188 4.187l-2-1 1-3c2.928-.976 4.956-1.082 8-1"/><path fill="#221040" d="M282 209h1l1 8h-3c-1.208-3.623-.543-4.641 1-8"/><path fill="#201039" d="m634 205 2 1v2c-3 2-3 2-5.187 1.625L629 209z"/><path fill="#29124e" d="m672 176 6 1c-1.312 1.5-1.312 1.5-3 3h-3z"/><path fill="#371a5c" d="M409 853h11l-1 2h-10z"/><path fill="#2c134f" d="M694 846v2h-10c3.991-1.996 5.7-2.195 10-2"/><path fill="#2b1450" d="M320 809h3v6h-2z"/><path fill="#2c1554" d="M344 704h3l1 5-4-1z"/><path fill="#2c1750" d="m304 160 3 1-1 5-2-2z"/><path fill="#29124f" d="m638 200-2 4h-2l-1-3c2-1 2-1 5-1"/><path fill="#29134f" d="m688 168 5 2-2 2h-3z"/><path fill="#2c1551" d="M716 160c2.875-.125 2.875-.125 6 0l2 2h-7z"/><path fill="#2a134d" d="M320 816h3l-1 5-2-1z"/><path fill="#2f145a" d="m280 536 3 1-2 5h-1z"/><path fill="#3f1e66" d="M554 855h10v1h-10z"/><path fill="#301856" d="m224 528 3 2-1 3h-2z"/><path fill="#2e1458" d="m240 490 7 1-2 2c-3.125-.375-3.125-.375-6-1z"/><path fill="#29134d" d="m656 184 2 1-1 2 3 1h-4z"/><path fill="#321755" d="m401 852 4 1v2l-4-1z"/><path fill="#301557" d="M345 711c.625 1.813.625 1.813 1 4l-2 3z"/><path fill="#30165b" d="M352 688h2l-1 5c-1-3-1-3-1-5"/><path fill="#30175c" d="m377 625 2 2-1 3-2-3z"/><path fill="#331958" d="m816 547 4 2-1 3v-2l-3-1z"/><path fill="#2e1756" d="M228 528h7l-4 2z"/><path fill="#30185a" d="m788 403 3 4-3 1z"/><path fill="#301659" d="M273 256h1v6c-1.062-1.875-1.062-1.875-2-4z"/><path fill="#28124f" d="M624 208h5l-4 3z"/><path fill="#3d1d64" d="M475 855h7v1h-7z"/><path fill="#301654" d="M397 852h3l-1 3-2-1z"/><path fill="#2f1756" d="m353 680 3 2-4 1z"/><path fill="#32185c" d="m360 664 4 1-2 2-2-1z"/><path fill="#2f1759" d="m369 640 2 1-3 3z"/><path fill="#341d5c" d="M212 472h6l-4 2z"/><path fill="#331b60" d="m266 392 2 4-3-1z"/><path fill="#2b134f" d="m413 200 3 1-2 3z"/><path fill="#2e1752" d="m313 160 2 2-5 1z"/><path fill="#301458" d="M508 855h6v1h-6z"/><path fill="#37185e" d="M496 855h6v1h-6z"/><path fill="#402069" d="M467 855h6v1h-6z"/><path fill="#3c1e63" d="M608 854h5l-1 2z"/><path fill="#33185f" d="M368 648h2l-2 4z"/><path fill="#2e1457" d="m249 492 4 1-2 2v-2z"/><path fill="#2c1351" d="m554 268 4 2h-5z"/><path fill="#2b1250" d="M503 268h6v1h-6z"/><path fill="#2e1656" d="M775 219h1v6h-1z"/><path fill="#2d1553" d="M765 187h2l-1 4z"/><path fill="#2c174f" d="m288 177 2 2-2 3z"/><path fill="#2a134f" d="M693 168h5l-4 2z"/><path fill="#2f1651" d="m734 160 4 1-1 2z"/><path fill="#2d1451" d="M712 160h3l1 3h-2v-2z"/><path fill="#401f67" d="M600 854h5v1h-5z"/><path fill="#2b144f" d="m329 837 2 2h-3z"/><path fill="#2c1453" d="M727 789h1v5h-1z"/><path fill="#2f1557" d="m365 612 2 3-3-1z"/><path fill="#2c1454" d="M773 540h1v5h-1z"/><path fill="#2f1556" d="m795 540 2 1-4 1z"/><path fill="#2f1558" d="M273 535h5v1h-5z"/><path fill="#311759" d="M774 498h2l-1 3z"/><path fill="#311659" d="m799 492 4 1-4 1z"/><path fill="#30195b" d="M272 377h1v5h-1z"/><path fill="#2d1755" d="M782 298h2l-1 3z"/><path fill="#2a124d" d="m610 219 2 1v2h-2z"/><path fill="#2f1752" d="m772 206 2 2h-3z"/><path fill="#2b144e" d="m401 192 2 1-1 2-2-2z"/><path fill="#281249" d="M642 192v3l-2-1z"/><path fill="#28134f" d="m661 184 2 2h-3z"/><path fill="#381a5e" d="m544 855 4 1Z"/><path fill="#3a1b60" d="m483 855 4 1Z"/><path fill="#3e1d65" d="m435 854 3 1h-3z"/><path fill="#391b61" d="M625 853h3l-1 2z"/><path fill="#311755" d="M394 851h2v2h-2z"/><path fill="#2f1554" d="m389 851 4 1Z"/><path fill="#2c1352" d="m328 768 1 4Z"/><path fill="#2d1453" d="m331 764 1 4Z"/><path fill="#2c1351" d="M329 761v3Z"/><path fill="#2d1456" d="m336 744 1 4Z"/><path fill="#2b1451" d="m336 729 2 2-2 1z"/><path fill="#31165a" d="m353 605 2 1-2 2z"/><path fill="#2f1757" d="m726 588 2 1h-3z"/><path fill="#371d5a" d="m827 532 3 1h-3z"/><path fill="#311659" d="m806 491 2 1h-3z"/><path fill="#2f155a" d="m785 472 3 1h-3z"/><path fill="#321a61" d="M273 384v3Z"/><path fill="#321a5b" d="m778 365 2 1-2 2z"/><path fill="#2e1353" d="M536 266v3Z"/><path fill="#28124e" d="m568 256 3 1-3 1z"/><path fill="#28114d" d="m600 225 2 1-2 2z"/><path fill="#29124d" d="m615 216 3 1-3 1z"/><path fill="#2d154f" d="m336 162 3 2h-3z"/><path fill="#2f1458" d="m520 855 3 1Z"/><path fill="#33175a" d="m504 855 3 1Z"/><path fill="#391b61" d="m491 855 3 1Z"/><path fill="#371a5e" d="m631 853 3 1Z"/><path fill="#2f1655" d="m332 760 1 2-2-1z"/><path fill="#301859" d="M360 667h2l-1 2z"/><path fill="#2f1756" d="m360 656 2 1-2 1z"/><path fill="#351b5f" d="M371 641h2l-1 2z"/><path fill="#311859" d="M686 612h2l-1 2z"/><path fill="#2c1453" d="m326 590 1 2-2-1z"/><path fill="#2e1552" d="m751 569 1 2-2-1z"/><path fill="#301955" d="M216 539h2l-1 2z"/><path fill="#351960" d="m283 535 2 1-2 1z"/><path fill="#2d1555" d="m248 522 3 1Z"/><path fill="#2e1656" d="m254 520 3 1Z"/><path fill="#2c1555" d="m248 520 3 1Z"/><path fill="#2f1555" d="m776 515 3 1Z"/><path fill="#30145b" d="m262 494 1 2-2-1z"/><path fill="#34165a" d="m793 493 3 1Z"/><path fill="#321a5b" d="m776 384 2 1-2 1z"/><path fill="#2c1251" d="m545 268 3 1Z"/><path fill="#2d1351" d="m538 268 3 1Z"/><path fill="#30195a" d="m780 262 2 2h-2z"/><path fill="#2f1654" d="m779 251 2 1-2 1z"/><path fill="#26114c" d="M592 232h2l-1 2z"/><path fill="#29114f" d="M602 226h2l-1 2z"/><path fill="#28114d" d="m604 224 2 2h-2z"/><path fill="#2d144f" d="M437 220h2l-1 2z"/><path fill="#2d1851" d="m289 182 2 1-2 1z"/><path fill="#301950" d="m753 169 2 1-2 1z"/><path fill="#2a144e" d="m705 164 1 2-2-1z"/><path fill="#2c174f" d="m308 160 2 2h-2z"/><path fill="#2e1851" d="M742 160h2l-1 2z"/><path fill="#3f1f65" d="m567 855 2 1Z"/><path fill="#38195f" d="m549 855 2 1Z"/><path fill="#34165d" d="m540 855 2 1Z"/><path fill="#34175c" d="m532 855 2 1Z"/><path fill="#35185b" d="m529 855 2 1Z"/><path fill="#402068" d="m463 855 2 1Z"/><path fill="#401f69" d="m460 855 2 1Z"/><path fill="#3e1f69" d="m444 855 2 1Z"/><path fill="#341959" d="m642 852 2 1Z"/><path fill="#34185c" d="m636 852 2 1Z"/><path fill="#2c1450" d="m383 850 2 1Z"/><path fill="#2d1252" d="m681 847 2 1Z"/><path fill="#291149" d="m349 847 2 1Z"/><path fill="#2e154f" d="m700 844 2 1Z"/><path fill="#2b144d" d="m331 839 2 1Z"/><path fill="#311858" d="m710 715 2 1Z"/><path fill="#33195a" d="m693 671 2 1Z"/><path fill="#341a5c" d="m686 655 2 1Z"/><path fill="#301759" d="m680 615 2 1Z"/><path fill="#311759" d="m371 615 2 1Z"/><path fill="#2e1557" d="m363 611 2 1Z"/><path fill="#2d1458" d="m360 609 2 1Z"/><path fill="#341b5c" d="m695 607 2 1Z"/><path fill="#2d1557" d="m317 583 2 1Z"/><path fill="#301756" d="m743 575 2 1Z"/><path fill="#2d1553" d="m304 575 2 1Z"/><path fill="#2d1455" d="m297 565 2 1Z"/><path fill="#2f1655" d="m758 563 2 1Z"/><path fill="#2b1453" d="m792 543 2 1Z"/><path fill="#321759" d="m258 539 2 1Z"/><path fill="#34195d" d="m281 534 2 1Z"/><path fill="#361e5a" d="m825 531 2 1Z"/><path fill="#2e1654" d="m243 524 2 1Z"/><path fill="#2d1555" d="m774 514 2 1Z"/><path fill="#311559" d="m771 499 2 1Z"/><path fill="#2e1459" d="m785 495 2 1Z"/><path fill="#2f1658" d="m804 494 2 1Z"/><path fill="#33165d" d="m790 494 2 1Z"/><path fill="#351e5a" d="m208 475 2 1Z"/><path fill="#351d5b" d="m832 472 2 1Z"/><path fill="#301658" d="m782 472 2 1Z"/><path fill="#301758" d="m790 435 2 1Z"/><path fill="#301a5a" d="m789 410 2 1Z"/><path fill="#341d64" d="m268 393 2 1Z"/><path fill="#2f1856" d="m782 363 2 1Z"/><path fill="#301756" d="m779 248 2 1Z"/><path fill="#28124f" d="m451 232 2 1Z"/><path fill="#2b1252" d="m445 227 2 1Z"/><path fill="#280f4c" d="m446 224 2 1Z"/><path fill="#2d1651" d="m663 184 2 1Z"/><path fill="#2d1551" d="m375 178 2 1Z"/><path fill="#2d174f" d="m290 176 2 1Z"/><path fill="#2a144f" d="m357 170 2 1Z"/><path fill="#2a144c" d="m360 169 2 1Z"/><path fill="#2c1953" d="m750 168 2 1Z"/><path fill="#2a144f" d="m352 168 2 1Z"/><path fill="#2d1751" d="m310 160 2 1Z"/></svg>