<svg xmlns="http://www.w3.org/2000/svg" viewBox="0 0 64 64" width="64" height="64">
  <defs>
    <linearGradient id="b" x1="0%" y1="0%" x2="100%" y2="100%">
      <stop offset="0%" stop-color="#a855f7"/>
      <stop offset="55%" stop-color="#7c3aed"/>
      <stop offset="100%" stop-color="#d946ef"/>
    </linearGradient>
    <linearGradient id="s" x1="0%" y1="0%" x2="0%" y2="100%">
      <stop offset="0%" stop-color="rgba(255,255,255,0.45)"/>
      <stop offset="100%" stop-color="rgba(255,255,255,0)"/>
    </linearGradient>
  </defs>
  <rect x="2" y="2" width="60" height="60" rx="16" fill="url(#b)"/>
  <rect x="2" y="2" width="60" height="30" rx="16" fill="url(#s)" opacity="0.55"/>
  <g fill="#fff" stroke="#fff" stroke-linejoin="round" stroke-linecap="round">
    <path d="M16 18 L22 30 L28 22 Z" stroke-width="1.2"/>
    <path d="M48 18 L42 30 L36 22 Z" stroke-width="1.2"/>
    <path d="M19 22 L22 28 L25 24 Z" fill="#a855f7" stroke="none"/>
    <path d="M45 22 L42 28 L39 24 Z" fill="#a855f7" stroke="none"/>
    <path d="M14 32 C14 24, 22 20, 32 20 C42 20, 50 24, 50 32 C50 42, 44 50, 32 50 C20 50, 14 42, 14 32 Z" stroke-width="1.4"/>
  </g>
  <ellipse cx="25" cy="34" rx="2.6" ry="3.4" fill="#1e1b4b"/>
  <ellipse cx="39" cy="34" rx="2.6" ry="3.4" fill="#1e1b4b"/>
  <circle cx="26" cy="33" r="0.8" fill="#fff"/>
  <circle cx="40" cy="33" r="0.8" fill="#fff"/>
  <path d="M30 39 L34 39 L32 41.5 Z" fill="#f472b6"/>
  <path d="M32 41.5 L32 43 M32 43 C30.5 44, 29.5 44, 28.5 43 M32 43 C33.5 44, 34.5 44, 35.5 43" fill="none" stroke="#1e1b4b" stroke-width="1.1" stroke-linecap="round"/>
  <g stroke="#fff" stroke-width="0.9" stroke-linecap="round" opacity="0.7">
    <line x1="14" y1="38" x2="22" y2="39"/>
    <line x1="14" y1="42" x2="22" y2="41"/>
    <line x1="50" y1="38" x2="42" y2="39"/>
    <line x1="50" y1="42" x2="42" y2="41"/>
  </g>
</svg>
